<?xml version="1.0" standalone="no"?><!DOCTYPE svg PUBLIC "-//W3C//DTD SVG 1.1//EN" "http://www.w3.org/Graphics/SVG/1.1/DTD/svg11.dtd"><svg class="icon" width="20px" height="20.00px" viewBox="0 0 1024 1024" version="1.1" xmlns="http://www.w3.org/2000/svg"><path d="M213.802667 213.333333m42.666666 0l512 0q42.666667 0 42.666667 42.666667l0 0q0 42.666667-42.666667 42.666667l-512 0q-42.666667 0-42.666666-42.666667l0 0q0-42.666667 42.666666-42.666667Z" fill="#ffffff" /><path d="M746.666667 810.666667H555.136v-170.197334h85.546667l-128.213334-170.922666-128 170.922666h85.333334v170.24h-192.512a64 64 0 0 1-64-64v-341.333333a64 64 0 0 1 64-64h469.333333a64 64 0 0 1 64 64v341.333333a64 64 0 0 1-63.957333 63.957334z" fill="#ffffff" /></svg>