<?xml version="1.0" encoding="utf-8"?>
<!-- Generator: Adobe Illustrator 24.1.2, SVG Export Plug-In . SVG Version: 6.00 Build 0)  -->
<svg version="1.1" id="图层_1" xmlns="http://www.w3.org/2000/svg" xmlns:xlink="http://www.w3.org/1999/xlink" x="0px" y="0px"
	 viewBox="0 0 25.17 20" style="enable-background:new 0 0 25.17 20;" xml:space="preserve">
<style type="text/css">
	.st0{fill:#FFFFFF;}
</style>
<g>
	<g>
		<path class="st0" d="M20.62,2.12c0.43,0.44,0.82,0.91,1.17,1.41c0.81,0.05,1.38,0.28,1.61,0.72c0.23,0.44,0.11,1.04-0.31,1.74
			c-1.15,1.94-4.54,4.66-8.93,6.99c-4.38,2.33-8.54,3.62-10.79,3.49C2.57,16.42,2,16.19,1.77,15.75c-0.23-0.44-0.11-1.04,0.31-1.74
			c-0.22-0.57-0.39-1.16-0.51-1.76c-1.36,1.7-1.91,3.25-1.34,4.32c0.57,1.07,2.15,1.48,4.33,1.31c0.11-0.01,0.21-0.02,0.32-0.03
			c0.41-0.04,0.84-0.11,1.28-0.19c3.03,2.54,7.42,3.14,11.12,1.17c3.71-1.97,5.66-5.94,5.25-9.87C22.85,8.63,23.14,8.31,23.4,8
			c0.07-0.08,0.14-0.17,0.21-0.25c1.36-1.7,1.91-3.25,1.34-4.32C24.37,2.36,22.79,1.95,20.62,2.12L20.62,2.12z M20.62,2.12"/>
		<path class="st0" d="M4.27,15.32c2.29-0.31,5.72-1.53,9.31-3.44c3.6-1.91,6.52-4.07,8.06-5.8c0.03-0.04,0.06-0.07,0.09-0.11
			c-0.1-0.22-0.21-0.45-0.32-0.66c-0.14-0.27-0.29-0.53-0.46-0.77c-0.16-0.25-0.34-0.5-0.52-0.73c-0.29-0.36-0.6-0.71-0.93-1.02
			c-0.16-0.15-0.32-0.3-0.49-0.44C15.98-0.2,11.6-0.8,7.89,1.17c-3.71,1.97-5.66,5.94-5.25,9.87c0.02,0.22,0.05,0.43,0.09,0.65
			c0.08,0.46,0.19,0.91,0.33,1.35c0.09,0.28,0.19,0.56,0.31,0.84c0.12,0.27,0.24,0.54,0.39,0.81c0.12,0.22,0.24,0.43,0.37,0.64
			C4.17,15.33,4.22,15.32,4.27,15.32L4.27,15.32z M4.27,15.32"/>
	</g>
</g>
</svg>
