<?xml version="1.0" standalone="no"?><!DOCTYPE svg PUBLIC "-//W3C//DTD SVG 1.1//EN" "http://www.w3.org/Graphics/SVG/1.1/DTD/svg11.dtd"><svg class="icon" width="20px" height="20.00px" viewBox="0 0 1024 1024" version="1.1" xmlns="http://www.w3.org/2000/svg"><path d="M0 0h1024v1024H0z" fill="#ffffff" fill-opacity="0" /><path d="M920.106667 91.818667c-15.445333-7.68-30.912-7.68-38.634667 0L108.522667 475.498667c-15.466667 0-23.189333 15.36-23.189334 30.698666 0 15.36 7.722667 30.698667 15.466667 30.698667l185.493333 115.093333c15.466667 7.68 30.933333 7.68 46.378667-7.68l409.664-368.32 15.466667 7.68L386.773333 675.008c-7.722667 7.68-7.722667 15.36-7.722666 23.018667v168.810666c0 15.36 7.722667 30.72 23.189333 38.378667 15.466667 7.68 30.933333 0 38.656-7.68l92.736-92.074667 185.514667 122.773334c7.722667 7.68 15.466667 7.68 23.189333 7.68h15.466667c15.445333-7.68 23.189333-15.36 23.189333-30.698667l154.581333-767.381333c0-23.04 0-38.378667-15.466666-46.037334z" fill="#ffffff" /></svg>