<?xml version="1.0" standalone="no"?><!DOCTYPE svg PUBLIC "-//W3C//DTD SVG 1.1//EN" "http://www.w3.org/Graphics/SVG/1.1/DTD/svg11.dtd"><svg class="icon" width="20px" height="20.00px" viewBox="0 0 1024 1024" version="1.1" xmlns="http://www.w3.org/2000/svg"><path d="M83.386182 350.370909s-33.163636-4.142545-54.644364 26.530909c-21.457455 30.557091 29.230545 73.378909 29.230546 73.378909l302.149818 320.093091 111.034182-240.616727-387.770182-179.386182z" fill="#ffffff" /><path d="M517.632 544.186182l-171.52 405.736727s-3.956364 34.676364 25.274182 57.064727c29.230545 22.574545 70.144-30.533818 70.144-30.533818l305.803636-315.950545-229.701818-116.317091z" fill="#ffffff" /><path d="M965.352727 574.999273l-301.870545-320.232728-111.034182 240.616728L940.078545 674.909091s33.163636 4.142545 54.621091-26.530909c21.341091-30.557091-29.346909-73.378909-29.346909-73.378909z" fill="#ffffff" /><path d="M652.055273 18.152727c-29.207273-22.574545-70.120727 30.533818-70.120728 30.533818l-305.803636 316.113455 229.818182 116.154182L677.352727 75.403636c0-0.139636 3.933091-34.676364-25.297454-57.250909z" fill="#ffffff" /></svg>