<?xml version="1.0" encoding="utf-8"?>
<!-- Generator: Adobe Illustrator 24.1.2, SVG Export Plug-In . SVG Version: 6.00 Build 0)  -->
<svg version="1.1" id="图层_1" xmlns="http://www.w3.org/2000/svg" xmlns:xlink="http://www.w3.org/1999/xlink" x="0px" y="0px"
	 viewBox="0 0 23.49 22" style="enable-background:new 0 0 23.49 22;" xml:space="preserve">
<style type="text/css">
	.st0{fill:#FFFFFF;}
</style>
<g>
	<g>
		<path class="st0" d="M17.46,8.78c-0.2-0.06-0.25-0.06-0.42-0.01c-0.84,0.27-1.84,2.4-2.75,4.88C12.5,8.71,10.16,3.32,8.29,2.67
			C8.1,2.6,7.92,2.55,7.67,2.65C4.63,3.64,0,22,0,22h23.49C23.43,21.8,19.87,9.6,17.46,8.78L17.46,8.78z M14.81,5.66
			c1.41,0,2.55-1.14,2.55-2.55c0-1.41-1.14-2.55-2.55-2.55c-1.41,0-2.55,1.14-2.55,2.55C12.25,4.52,13.39,5.66,14.81,5.66
			L14.81,5.66z M14.81,5.66"/>
		<path class="st0" d="M11.69,3.19c0,1.14,0.61,2.19,1.59,2.76c0.99,0.57,2.2,0.57,3.19,0c0.99-0.57,1.59-1.62,1.59-2.76
			c0-1.14-0.61-2.19-1.59-2.76c-0.99-0.57-2.2-0.57-3.19,0C12.29,1,11.69,2.05,11.69,3.19L11.69,3.19z M11.69,3.19"/>
	</g>
</g>
</svg>
