<?xml version="1.0" standalone="no"?><!DOCTYPE svg PUBLIC "-//W3C//DTD SVG 1.1//EN" "http://www.w3.org/Graphics/SVG/1.1/DTD/svg11.dtd"><svg class="icon" width="20px" height="20.00px" viewBox="0 0 1024 1024" version="1.1" xmlns="http://www.w3.org/2000/svg"><path d="M978.765409 360.996545L791.717527 118.997522a79.423727 79.423727 0 0 0-62.510374-30.685655H294.568486a79.458244 79.458244 0 0 0-62.527632 30.685655L44.992972 360.996545a78.733386 78.733386 0 0 0 3.917685 101.083175l404.384474 446.805925a79.04404 79.04404 0 0 0 117.168119 0l404.367215-446.805925a78.716128 78.716128 0 0 0 3.934944-101.083175" fill="#ffffff" /><path d="M921.294524 413.704077l-404.367215 446.823184a6.7826 6.7826 0 0 1-10.044461 0L102.515632 413.704077a6.713566 6.713566 0 0 1-0.34517-8.64652L289.201085 163.024017a6.799858 6.799858 0 0 1 5.367401-2.623296h434.638667c2.071023 0.017259 4.038495 0.966477 5.367401 2.623296L921.570661 405.057557a6.730824 6.730824 0 0 1-0.276137 8.64652z" fill="#ffffff" /><path d="M678.950331 420.055214l-162.005764 179.039927a6.7826 6.7826 0 0 1-10.044461 0L341.373603 416.223821a36.070315 36.070315 0 0 0-53.5532 48.341126l165.474728 182.905837a79.009523 79.009523 0 0 0 117.185377 0l162.005764-179.022669a36.070315 36.070315 0 1 0-53.553199-48.375643h0.017258z" fill="#fd3118" /></svg>