<?xml version="1.0" encoding="utf-8"?>
<!-- Generator: Adobe Illustrator 24.1.2, SVG Export Plug-In . SVG Version: 6.00 Build 0)  -->
<svg version="1.1" id="图层_1" xmlns="http://www.w3.org/2000/svg" xmlns:xlink="http://www.w3.org/1999/xlink" x="0px" y="0px"
	 viewBox="0 0 20 19.84" style="enable-background:new 0 0 20 19.84;" xml:space="preserve">
<style type="text/css">
	.st0{fill:#FFFFFF;}
</style>
<g>
	<path class="st0" d="M15.26,19.84c-2.62,0-4.74-2.12-4.74-4.74v-4.74h4.74c2.62,0,4.74,2.12,4.74,4.74
		C20,17.72,17.88,19.84,15.26,19.84L15.26,19.84z M15.26,19.84"/>
	<path class="st0" d="M12.04,15.12c0,1.78,1.46,3.24,3.24,3.24c1.78,0,3.24-1.46,3.24-3.24c0-1.78-1.46-3.24-3.24-3.24h-3.24V15.12z
		 M4.74,19.84C2.12,19.84,0,17.72,0,15.1c0-2.62,2.12-4.74,4.74-4.74h4.74v4.74C9.46,17.72,7.34,19.84,4.74,19.84L4.74,19.84z
		 M4.74,19.84"/>
	<path class="st0" d="M4.74,11.88c-1.78,0-3.24,1.46-3.24,3.24c0,1.78,1.46,3.24,3.24,3.24c1.78,0,3.24-1.46,3.24-3.24v-3.24H4.74z
		 M10.54,9.47V4.74c0-2.62,2.12-4.74,4.74-4.74C17.9,0,20,2.13,20,4.74c0,1.26-0.49,2.44-1.38,3.35c-0.9,0.9-2.09,1.38-3.35,1.38
		H10.54z M10.54,9.47"/>
	<path class="st0" d="M15.26,7.97c1.78,0,3.24-1.46,3.24-3.24c0-1.78-1.46-3.24-3.24-3.24c-1.78,0-3.24,1.46-3.24,3.24v3.24H15.26z
		 M4.74,9.47C2.12,9.47,0,7.35,0,4.74S2.12,0,4.74,0C6,0,7.18,0.49,8.09,1.38c0.9,0.9,1.38,2.09,1.38,3.35v4.74H4.74z M4.74,9.47"/>
	<path class="st0" d="M4.74,1.5C2.96,1.5,1.5,2.96,1.5,4.74c0,1.78,1.46,3.24,3.24,3.24h3.24V4.74C7.96,2.94,6.51,1.5,4.74,1.5
		L4.74,1.5z M4.74,1.5"/>
</g>
</svg>
