<?xml version="1.0" encoding="utf-8"?>
<!-- Generator: Adobe Illustrator 24.1.2, SVG Export Plug-In . SVG Version: 6.00 Build 0)  -->
<svg version="1.1" id="图层_1" xmlns="http://www.w3.org/2000/svg" xmlns:xlink="http://www.w3.org/1999/xlink" x="0px" y="0px"
	 viewBox="0 0 23 18.44" style="enable-background:new 0 0 23 18.44;" xml:space="preserve">
<style type="text/css">
	.st0{fill:#FFFFFF;}
</style>
<g>
	<g>
		<path class="st0" d="M18.96,3.12l-0.24-0.24l-2.65-2.67C15.95,0.07,15.77,0,15.59,0c-0.19,0-0.36,0.07-0.49,0.21L9.2,6.16
			l0.83,0.84l0.03,0.03c0.06,0.06,0.12,0.12,0.18,0.17c0.38,0.3,0.92,0.49,1.52,0.49c0.64,0,1.21-0.21,1.59-0.55l0.15-0.15
			l0.73-0.74l0.55-0.56l0.01-0.01l0.24,0.24l4.38,4.42l-3.97-4l4.2,4.24L23,7.19L18.96,3.12z M18.96,3.12"/>
		<path class="st0" d="M15.27,11.07c0.22-0.22,0.57-0.22,0.79,0l1.44,1.43l1.36-1.35l-3.75-3.72l-0.01,0l-0.47-0.46l-0.81,0.8
			c-1.27,1.25-3.31,1.25-4.58,0L8.68,7.22L8.15,6.69L7.59,6.13l3.1-3.08L7.81,0.2c-0.27-0.27-0.72-0.27-0.99,0L0.2,6.76
			C0.07,6.89,0,7.07,0,7.25c0,0.18,0.07,0.36,0.2,0.49L10.75,18.2c0.27,0.27,0.72,0.27,0.99,0l0.04-0.04
			c0.03-0.02,0.06-0.05,0.08-0.07l0.79-0.78l-1.44-1.43c-0.11-0.1-0.16-0.25-0.16-0.39c0-0.15,0.06-0.29,0.16-0.39
			c0.22-0.22,0.57-0.22,0.79,0l1.44,1.42l1.2-1.19l-1.44-1.43c-0.15-0.14-0.2-0.35-0.15-0.54c0.05-0.2,0.21-0.35,0.4-0.4
			c0.2-0.05,0.4,0.01,0.55,0.15l1.44,1.43l1.26-1.25l-1.44-1.43c-0.11-0.1-0.16-0.25-0.16-0.39C15.1,11.32,15.16,11.17,15.27,11.07
			L15.27,11.07z M15.27,11.07"/>
	</g>
</g>
</svg>
