<?xml version="1.0" standalone="no"?><!DOCTYPE svg PUBLIC "-//W3C//DTD SVG 1.1//EN" "http://www.w3.org/Graphics/SVG/1.1/DTD/svg11.dtd"><svg class="icon" width="20px" height="20.00px" viewBox="0 0 1024 1024" version="1.1" xmlns="http://www.w3.org/2000/svg"><path d="M909.312 413.696v-5.632c-0.512-10.752-6.144-20.48-14.848-27.136l-45.568-31.744 28.16-49.152c5.12-9.728 5.632-20.992 2.048-30.72-28.16-67.072-74.24-124.928-132.608-167.936-9.216-6.656-20.48-8.192-31.232-5.12L662.016 112.64l-20.48-52.224c-4.096-10.24-12.8-17.92-23.04-20.992C548.352 20.48 474.624 20.48 404.48 40.448c-10.24 3.072-18.944 10.752-23.04 20.992l-20.48 52.224L308.224 97.28c-10.752-3.072-22.016-1.024-30.72 5.12-58.88 43.008-104.96 100.864-133.12 167.936-4.096 10.24-3.584 21.504 2.048 30.72l28.16 49.152-45.568 31.744c-8.704 6.144-13.824 15.872-14.848 26.624v18.432c0 67.072 16.384 132.608 48.128 191.488 5.12 9.728 14.848 16.384 25.6 17.92l54.784 8.192-5.12 55.296c-0.512 10.752 3.584 20.992 11.264 28.16 54.272 48.64 121.344 81.408 193.536 94.208h6.144c8.704 0.512 16.896-2.048 23.552-7.68l39.936-35.84 39.936 35.84c8.192 7.168 18.944 10.752 29.184 9.216 71.68-12.8 138.752-45.568 193.536-94.208 8.192-7.168 12.288-17.408 11.264-28.16l-4.096-55.296 54.784-10.752c10.752-2.048 19.968-8.704 25.088-17.92 31.744-58.88 48.64-124.928 48.64-191.488-0.512-3.584-0.512-6.144-1.024-12.288zM511.488 614.4c-105.472 0-190.976-85.504-190.976-190.976 0-105.472 85.504-190.976 190.976-190.976s190.976 85.504 190.976 190.976v0.512c-0.512 105.472-85.504 190.464-190.976 190.464z" fill="#ffffff" /><path d="M782.336 769.024c-55.808 45.568-122.368 75.776-193.024 88.576-4.096 0.512-8.192 0.512-12.288 0l30.208 114.688c4.608 13.312 15.872 23.04 29.184 25.6h6.656c11.264 0 22.016-5.12 29.184-13.824l54.272-61.952 101.376 24.576c14.848 5.12 31.232-0.512 40.448-13.312 9.216-13.312 9.216-31.232 0-44.544l-86.016-119.808z m-335.872 89.6H440.32c-73.216-13.312-141.824-45.056-199.168-93.184l-88.064 126.464c-12.288 15.36-10.24 37.888 5.632 50.688 10.24 8.192 23.552 10.24 35.328 5.632l100.864-25.088 53.248 61.44c7.168 8.704 17.92 13.824 29.184 13.824h7.68c13.824-3.072 24.576-13.312 28.672-27.136l33.28-112.128-0.512-0.512z" fill="#ffffff" /></svg>