<?xml version="1.0" encoding="utf-8"?>
<!-- Generator: Adobe Illustrator 24.1.2, SVG Export Plug-In . SVG Version: 6.00 Build 0)  -->
<svg version="1.1" id="图层_1" xmlns="http://www.w3.org/2000/svg" xmlns:xlink="http://www.w3.org/1999/xlink" x="0px" y="0px"
	 viewBox="0 0 19.29 20" style="enable-background:new 0 0 19.29 20;" xml:space="preserve">
<style type="text/css">
	.st0{fill:#FFFFFF;}
	.st1{fill:#2F8DFF;}
</style>
<g>
	<path class="st0" d="M15.88,0H3.4C1.53,0,0,1.49,0,3.3v9.98c0,1.82,1.53,3.3,3.4,3.3H4v2.8c0,0.23,0.13,0.44,0.34,0.55
		C4.44,19.98,4.54,20,4.64,20c0.13,0,0.26-0.04,0.37-0.11l4.75-3.3h6.14c1.87,0,3.4-1.49,3.4-3.3V3.3C19.29,1.49,17.76,0,15.88,0
		L15.88,0z M9.88,11.91c-0.15,0.1-0.33,0.1-0.48,0c-0.95-0.64-4.38-3.07-4.38-5.12c0-1.71,1.15-2.48,2.56-2.48
		c0.68,0,1.3,0.26,1.76,0.69c0.17,0.16,0.43,0.16,0.61,0c0.46-0.43,1.08-0.69,1.76-0.69c1.41,0,2.56,1.11,2.56,2.48
		C14.27,8.75,10.83,11.25,9.88,11.91L9.88,11.91z M9.88,11.91"/>
	<path class="st1" d="M11.71,4.31c-0.68,0-1.3,0.26-1.76,0.69c-0.17,0.16-0.43,0.16-0.61,0C8.88,4.57,8.26,4.31,7.58,4.31
		c-1.41,0-2.56,0.77-2.56,2.48c0,2.05,3.43,4.48,4.38,5.12c0.15,0.1,0.33,0.1,0.48,0c0.95-0.65,4.38-3.16,4.38-5.12
		C14.27,5.42,13.12,4.31,11.71,4.31L11.71,4.31z M11.71,4.31"/>
</g>
</svg>
