<?xml version="1.0" encoding="utf-8"?>
<!-- Generator: Adobe Illustrator 24.1.2, SVG Export Plug-In . SVG Version: 6.00 Build 0)  -->
<svg version="1.1" id="图层_1" xmlns="http://www.w3.org/2000/svg" xmlns:xlink="http://www.w3.org/1999/xlink" x="0px" y="0px"
	 viewBox="0 0 17.5 20" style="enable-background:new 0 0 17.5 20;" xml:space="preserve">
<style type="text/css">
	.st0{clip-path:url(#SVGID_2_);fill:#FFFFFF;}
	.st1{fill:#FF9C00;}
</style>
<g>
	<g>
		<defs>
			<rect id="SVGID_1_" x="0" y="0" width="17.49" height="20"/>
		</defs>
		<clipPath id="SVGID_2_">
			<use xlink:href="#SVGID_1_"  style="overflow:visible;"/>
		</clipPath>
		<path class="st0" d="M15.22,0H2.25C1.01,0,0,0.99,0,2.2V18c0,1.09,0.91,1.98,2.03,1.98c0.34,0,0.67-0.08,0.99-0.25l5.71-3.13
			l5.73,3.13c0.31,0.17,0.64,0.25,0.99,0.25c1.13,0,2.04-0.88,2.04-1.98V2.2C17.47,0.99,16.46,0,15.22,0L15.22,0z M15.22,0"/>
	</g>
	<path class="st1" d="M4.06,4.38h9.37c0.52,0,0.94,0.42,0.94,0.94c0,0.52-0.42,0.94-0.94,0.94H4.06c-0.52,0-0.94-0.42-0.94-0.94
		C3.12,4.79,3.54,4.38,4.06,4.38L4.06,4.38z M4.06,9.37h9.37c0.52,0,0.94,0.42,0.94,0.94c0,0.52-0.42,0.94-0.94,0.94H4.06
		c-0.52,0-0.94-0.42-0.94-0.94C3.12,9.79,3.54,9.37,4.06,9.37L4.06,9.37z M4.06,9.37"/>
</g>
</svg>
