<?xml version="1.0" standalone="no"?><!DOCTYPE svg PUBLIC "-//W3C//DTD SVG 1.1//EN" "http://www.w3.org/Graphics/SVG/1.1/DTD/svg11.dtd"><svg class="icon" width="20px" height="20.00px" viewBox="0 0 1024 1024" version="1.1" xmlns="http://www.w3.org/2000/svg"><path d="M802.7 64.1H220.9c-55.8 0-101 44.3-101 98.6v708.9c0 49 40.8 88.7 91.3 88.7 15.1 0 30.1-3.8 44.2-11.3l256.4-140.5L768.7 949c14.1 7.5 28.6 11.3 44.2 11.3 50.5 0 91.3-39.6 91.3-88.7V162.7c-0.5-54.2-45.7-98.6-101.5-98.6z" fill="#6665ff" /><path d="M302.1 260.4h420.5c23.2 0 42 18.8 42 42s-18.8 42-42 42H302.1c-23.2 0-42-18.8-42-42s18.8-42 42-42zM302.1 484.6h420.5c23.2 0 42 18.8 42 42s-18.8 42-42 42H302.1c-23.2 0-42-18.8-42-42s18.8-42 42-42z" fill="#ffffff" /></svg>