<?xml version="1.0" encoding="utf-8"?>
<!-- Generator: Adobe Illustrator 24.1.2, SVG Export Plug-In . SVG Version: 6.00 Build 0)  -->
<svg version="1.1" id="图层_1" xmlns="http://www.w3.org/2000/svg" xmlns:xlink="http://www.w3.org/1999/xlink" x="0px" y="0px"
	 viewBox="0 0 22.29 19" style="enable-background:new 0 0 22.29 19;" xml:space="preserve">
<style type="text/css">
	.st0{fill:#FFFFFF;}
</style>
<g>
	<g>
		<path class="st0" d="M13.26,10.57h-0.99c-0.03,0-0.05,0.02-0.05,0.05v0.99c0,0.56-0.43,1.04-0.99,1.08
			c-0.62,0.04-1.14-0.45-1.14-1.07v-1.01c0-0.03-0.02-0.05-0.05-0.05H9.03c-0.56,0-1.04-0.43-1.08-0.99C7.9,8.96,8.4,8.43,9.01,8.43
			h1.01c0.03,0,0.05-0.02,0.05-0.05V7.39c0-0.56,0.43-1.04,0.99-1.08c0.62-0.04,1.14,0.45,1.14,1.07v1.01
			c0,0.03,0.02,0.05,0.05,0.05h1.01c0.61,0,1.11,0.52,1.07,1.14C14.3,10.14,13.82,10.57,13.26,10.57L13.26,10.57z M13.26,10.57"/>
		<path class="st0" d="M20.57,1.72C19.42,0.57,17.91,0,16.42,0c-1.49,0-3,0.57-4.15,1.72l-2.35,2.3c-0.21,0.21-0.55,0.21-0.75,0
			c-0.21-0.21-0.21-0.55,0-0.75l1.16-1.16c0.02-0.02,0.02-0.05,0-0.07l-0.31-0.31c-2.29-2.29-6-2.29-8.29,0
			c-2.29,2.29-2.29,6,0,8.29l1.13,1.13l6.79,6.79l0.75,0.75c0.42,0.42,1.09,0.42,1.51,0l0.75-0.75l6.79-6.79l1.13-1.13
			C22.86,7.72,22.86,4.01,20.57,1.72L20.57,1.72z M15.49,9.65c-0.08,1.13-1,2.01-2.13,2.06c-0.02,0.52-0.23,1.02-0.58,1.41
			c-0.39,0.42-0.91,0.68-1.48,0.72c-0.05,0-0.1,0.01-0.15,0.01c-1.2,0-2.17-0.95-2.21-2.14c-0.52-0.02-1.02-0.23-1.41-0.58
			c-0.42-0.39-0.68-0.91-0.72-1.48C6.76,9.05,6.97,8.44,7.39,7.99c0.4-0.43,0.96-0.68,1.54-0.7c0.02-0.52,0.23-1.02,0.58-1.41
			c0.39-0.42,0.91-0.68,1.48-0.72c0.05,0,0.1-0.01,0.15-0.01c1.19,0,2.17,0.95,2.21,2.13c0.58,0.02,1.14,0.27,1.54,0.7
			C15.31,8.44,15.53,9.05,15.49,9.65L15.49,9.65z M15.49,9.65"/>
	</g>
</g>
</svg>
