<?xml version="1.0" encoding="utf-8"?>
<!-- Generator: Adobe Illustrator 24.1.2, SVG Export Plug-In . SVG Version: 6.00 Build 0)  -->
<svg version="1.1" id="图层_1" xmlns="http://www.w3.org/2000/svg" xmlns:xlink="http://www.w3.org/1999/xlink" x="0px" y="0px"
	 viewBox="0 0 19.3 20" style="enable-background:new 0 0 19.3 20;" xml:space="preserve">
<style type="text/css">
	.st0{fill:#FFFFFF;}
</style>
<g>
	<g>
		<rect x="1.32" y="7.57" class="st0" width="16.11" height="2.84"/>
		<path class="st0" d="M19.3,18.1L18.76,2.55c-0.02-0.7-0.31-1.36-0.81-1.84c-0.5-0.48-1.18-0.74-1.87-0.72H3.21
			C2.52-0.02,1.85,0.24,1.34,0.72C0.84,1.2,0.55,1.86,0.54,2.55L0,18.1h1.86c-0.01,0.07-0.01,0.15,0,0.22v0.51
			c0,0.64,0.52,1.17,1.16,1.17h1.7c0.64,0,1.16-0.52,1.16-1.17v-0.51c0.01-0.07,0.01-0.15,0-0.22h7.63c-0.01,0.07-0.01,0.15,0,0.22
			v0.51c0,0.64,0.52,1.17,1.16,1.17h1.7c0.64,0,1.16-0.52,1.16-1.17v-0.51c0.01-0.07,0.01-0.15,0-0.22H19.3L19.3,18.1z M3.31,15.67
			c-0.82,0-1.48-0.66-1.47-1.48c0-0.82,0.66-1.48,1.47-1.48c0.39,0,0.77,0.16,1.04,0.43c0.28,0.28,0.43,0.65,0.43,1.05
			c0,0.39-0.15,0.77-0.43,1.05C4.07,15.51,3.7,15.67,3.31,15.67L3.31,15.67z M2.26,10.31l0.2-6.38c0-1.4,0.51-1.97,1.81-1.97h10.75
			c1.29,0,1.81,0.55,1.81,1.97l0.2,6.38H2.26z M15.99,15.67c-0.39,0-0.77-0.16-1.04-0.43c-0.28-0.28-0.43-0.65-0.43-1.05
			c0-0.39,0.15-0.77,0.43-1.05c0.28-0.28,0.65-0.43,1.04-0.43c0.39,0,0.77,0.16,1.04,0.43c0.28,0.28,0.43,0.65,0.43,1.05
			c0,0.39-0.16,0.77-0.43,1.05C16.76,15.51,16.38,15.67,15.99,15.67L15.99,15.67z M15.99,15.67"/>
	</g>
</g>
</svg>
