<?xml version="1.0" standalone="no"?><!DOCTYPE svg PUBLIC "-//W3C//DTD SVG 1.1//EN" "http://www.w3.org/Graphics/SVG/1.1/DTD/svg11.dtd"><svg class="icon" width="20px" height="20.00px" viewBox="0 0 1024 1024" version="1.1" xmlns="http://www.w3.org/2000/svg"><path d="M700.969 104.502C770.855 60.823 873.61 69.974 873.61 69.974c38.138 0 69.056 30.918 69.056 69.057v517.92c0 38.139-13.515 70.556-34.529 103.583 0 0-37.2 53.797-103.584 103.583-71.536 53.654-207.167 69.057-207.167 69.057-38.139 0-69.057-30.918-69.057-69.057v-517.92c0-80.564 83.923-186.248 172.64-241.695zM322.634 105.536c-69.885-43.624-172.64-34.484-172.64-34.484-38.139 0-69.056 30.879-69.056 68.969v517.274c0 38.092 13.514 70.467 34.527 103.453 0 0 37.202 53.732 103.585 103.457 71.536 53.585 207.168 68.969 207.168 68.969 38.139 0 69.056-30.88 69.056-68.969V346.931c0-80.465-83.922-186.014-172.64-241.395z" fill="#ffffff" /><path d="M109.445 70.803c-38.139 0-69.056 31.701-69.056 70.802v531.018c0 39.104 13.514 72.34 34.527 106.203 0 0 37.202 55.159 103.584 106.205a189.88 189.88 0 0 0 10.543 7.533c-18.354-7.977-35.736-17.362-50.417-28.359C72.243 814.48 35.041 760.748 35.041 760.748 14.028 727.762 0.514 695.387 0.514 657.295V140.021c0-38.09 30.917-68.969 69.056-68.969 0 0 16.874-1.5 41.593-0.383-1.12 0.08-1.718 0.134-1.718 0.134zM989.956 760.741s-37.205 53.733-103.592 103.46c-14.682 10.998-32.066 20.384-50.421 28.36a190.798 190.798 0 0 0 10.544-7.532c66.387-51.049 103.591-106.21 103.591-106.21 21.016-33.864 34.53-67.101 34.53-106.206V141.574c0-39.103-30.919-70.804-69.061-70.804 0 0-0.598-0.055-1.719-0.135 24.722-1.117 41.597 0.383 41.597 0.383 38.142 0 69.061 30.881 69.061 68.972v517.293c0 38.094-13.515 70.471-34.53 103.458z" fill="#ffffff" /></svg>