<?xml version="1.0" encoding="utf-8"?>
<!-- Generator: Adobe Illustrator 24.1.2, SVG Export Plug-In . SVG Version: 6.00 Build 0)  -->
<svg version="1.1" id="图层_1" xmlns="http://www.w3.org/2000/svg" xmlns:xlink="http://www.w3.org/1999/xlink" x="0px" y="0px"
	 viewBox="0 0 20 20" style="enable-background:new 0 0 20 20;" xml:space="preserve">
<style type="text/css">
	.st0{fill:#FFFFFF;}
</style>
<g>
	<g>
		<path class="st0" d="M10,12.11c-0.83,0-1.6-0.44-2.02-1.17c-0.42-0.72-0.42-1.61,0-2.33C8.4,7.89,9.17,7.45,10,7.45
			c1.29,0,2.33,1.04,2.33,2.33S11.29,12.11,10,12.11 M13.99,13.99c5.08-5.08,7.57-10.34,4.96-12.94c-2.61-2.6-7.87-0.12-12.95,4.96
			c-5.08,5.08-7.57,10.34-4.96,12.94C3.65,21.56,8.91,19.07,13.99,13.99"/>
		<path class="st0" d="M4.68,4.68C3.47,5.9,2.4,7.12,1.5,8.31c-1.72-2.99-2.07-5.64-0.45-7.26C2.67-0.58,5.32-0.22,8.31,1.5
			C6.87,2.59,5.61,3.75,4.68,4.68L4.68,4.68z M15.32,15.32c1.22-1.22,2.28-2.43,3.18-3.63c1.72,2.99,2.07,5.64,0.45,7.26
			c-1.62,1.62-4.27,1.27-7.27-0.45C13.13,17.41,14.39,16.25,15.32,15.32L15.32,15.32z M15.32,15.32"/>
	</g>
</g>
</svg>
