<?xml version="1.0" standalone="no"?><!DOCTYPE svg PUBLIC "-//W3C//DTD SVG 1.1//EN" "http://www.w3.org/Graphics/SVG/1.1/DTD/svg11.dtd"><svg class="icon" width="20px" height="20.00px" viewBox="0 0 1024 1024" version="1.1" xmlns="http://www.w3.org/2000/svg"><path d="M0 0h1024v1024H0z" fill="#ffffff" fill-opacity="0.01" /><path d="M241.530435 94.541913a254.486261 254.486261 0 0 1 192.890435 75.174957l2.604521 2.671304c6.344348 6.41113 9.928348 15.181913 9.928348 24.33113 0 9.149217-3.561739 17.92-9.928348 24.353392l-129.647304 131.227826c-7.101217 7.168-10.685217 17.185391-9.839304 27.336348 0.868174 10.150957 6.099478 19.366957 14.291478 25.154782l32.968348 23.574261c79.471304 56.720696 181.871304 96.411826 270.825739 6.41113l3.717565-3.784347c6.41113-6.455652 15.048348-10.084174 24.041739-10.039653 11.731478 2.381913 19.72313 5.743304 24.019478 10.039653l164.641392 166.66713c6.077217 6.144 9.505391 14.536348 9.549913 23.28487 0.022261 8.770783-3.33913 17.185391-9.371826 23.373913L595.70087 887.54087l-0.467479 0.53426a126.73113 126.73113 0 0 1-90.913391 38.199653 126.797913 126.797913 0 0 1-90.624-38.912L77.868522 540.271304c-94.853565-96.077913-104.158609-250.701913-21.281392-352.233739 46.436174-56.809739 112.105739-89.978435 184.943305-93.495652zM575.933217 171.631304c94.208-94.386087 245.982609-103.646609 345.555479-21.147826 55.741217 46.146783 88.30887 111.460174 91.714782 183.941565 3.31687 71.813565-23.529739 141.645913-73.683478 191.844174l-18.899478 18.899479a33.569391 33.569391 0 0 1-47.771826 0l-211.656348-212.057044a33.54713 33.54713 0 0 0-47.727305 0l-51.645217 51.689739c-51.133217 51.2-112.261565 39.513043-154.267826 20.969739-21.949217-9.661217-27.603478-38.110609-10.685217-55.095652l157.005913-157.295304 0.133565 0.178087 21.926956-21.926957z" fill="#ffffff" /></svg>