<?xml version="1.0" encoding="utf-8"?>
<!-- Generator: Adobe Illustrator 24.1.2, SVG Export Plug-In . SVG Version: 6.00 Build 0)  -->
<svg version="1.1" id="图层_1" xmlns="http://www.w3.org/2000/svg" xmlns:xlink="http://www.w3.org/1999/xlink" x="0px" y="0px"
	 viewBox="0 0 23.6 20" style="enable-background:new 0 0 23.6 20;" xml:space="preserve">
<style type="text/css">
	.st0{fill:#FFFFFF;}
</style>
<g>
	<path class="st0" d="M22.31,14.91c-0.15-0.59-0.72-0.86-1.3-0.59h-0.15c-0.59,0.15-0.86,0.72-0.59,1.3l0.72,2.17H2.62l0.72-2.17
		c0.15-0.59-0.15-1.16-0.59-1.3H2.61c-0.59-0.15-1.16,0.15-1.3,0.59L0,18.39v0.88c0,0.15,0.15,0.15,0.15,0.29
		C0.29,19.85,0.73,20,1.01,20h21.58c0.29,0,0.72-0.15,0.86-0.44l0.15-0.29v-0.88L22.31,14.91z M22.31,14.91"/>
	<path class="st0" d="M15.37,15.93l6.81-6.8l-9-9.13L2.75,10.43l5.66,5.49H15.37z M15.37,15.93"/>
</g>
</svg>
