<?xml version="1.0" encoding="utf-8"?>
<!-- Generator: Adobe Illustrator 24.1.2, SVG Export Plug-In . SVG Version: 6.00 Build 0)  -->
<svg version="1.1" id="图层_1" xmlns="http://www.w3.org/2000/svg" xmlns:xlink="http://www.w3.org/1999/xlink" x="0px" y="0px"
	 viewBox="0 0 20 20" style="enable-background:new 0 0 20 20;" xml:space="preserve">
<style type="text/css">
	.st0{fill:#FFFFFF;}
</style>
<g>
	<path class="st0" d="M9.77,13.47l3.4,5.81c2.82-0.94,5.07-3.09,6.14-5.81H9.77z M10.47,6.26L7.15,0.45
		C4.32,1.35,2.04,3.5,0.93,6.26H10.47z M12.33,12.54h7.35C19.89,11.71,20,10.86,20,10c0-2.49-0.9-4.76-2.4-6.53L12.33,12.54z
		 M11.43,6.24l0.11,0.18l0.23,0.4l1.3,2.24l3.68-6.33c-1.87-1.76-4.34-2.74-6.91-2.73c-0.66,0-1.3,0.06-1.93,0.18L11.43,6.24
		L11.43,6.24z M7.67,7.43H0.37C0.12,8.29,0,9.18,0,10.08c0,2.44,0.89,4.68,2.37,6.41L7.67,7.43z M7.06,10.68l-3.8,6.55
		c1.88,1.77,4.36,2.76,6.94,2.75c0.73,0,1.44-0.08,2.13-0.23L7.06,10.68z M7.06,10.68"/>
</g>
</svg>
