<?xml version="1.0" standalone="no"?><!DOCTYPE svg PUBLIC "-//W3C//DTD SVG 1.1//EN" "http://www.w3.org/Graphics/SVG/1.1/DTD/svg11.dtd"><svg class="icon" width="20px" height="20.00px" viewBox="0 0 1024 1024" version="1.1" xmlns="http://www.w3.org/2000/svg"><path d="M512 512m-512 0a512 512 0 1 0 1024 0 512 512 0 1 0-1024 0Z" fill="#ffffff" /><path d="M223.58 409.028C198.908 378.511 184 338.852 184 295.5c0-8.091 0.52-16.054 1.524-23.852C192.22 186.765 262.181 120 347.5 120c66.707 0 124.027 40.813 149.06 99.189 6.984 15.207 11.945 31.65 14.513 48.938a184.744 184.744 0 0 1 3.586-18.108C530.46 175.694 595.575 120 673.5 120c89.746 0 162.5 73.873 162.5 165 0 11.685-1.196 23.087-3.471 34.085-4.146 32.961-16.86 63.002-35.655 87.45C872.835 459.296 920 532.976 920 614.5 920 774.939 737.332 905 512 905S104 774.939 104 614.5c0-80.248 45.7-152.897 119.58-205.472z" fill="#ffffff" /><path d="M238.502 830.07A130.59 130.59 0 0 1 235 800c0-101.068 116.07-183 277-183s277 81.932 277 183a130.59 130.59 0 0 1-3.502 30.07C713.138 876.64 617.221 905 512 905c-105.22 0-201.139-28.36-273.498-74.93z" fill="#ffffff" /><path d="M453.023 492.522a6 6 0 1 1 11.955-1.043c3.4 39 18.542 59.214 45.743 62.62 20.685 2.588 36.527-13.155 47.64-49.586a6 6 0 1 1 11.478 3.501c-12.614 41.35-32.855 61.465-60.608 57.991-33.517-4.195-52.36-29.349-56.208-73.483z" fill="#ffffff" /><path d="M342.5 399C279.816 399 229 347.289 229 283.5S279.816 168 342.5 168 456 219.711 456 283.5 405.184 399 342.5 399z m326 0C605.816 399 555 347.289 555 283.5S605.816 168 668.5 168 782 219.711 782 283.5 731.184 399 668.5 399z" fill="#ffffff" /><path d="M185.105 291c3.11 88.348 74.627 159 162.395 159 87.768 0 159.285-70.652 162.395-159 0.07 1.991 0.105 3.991 0.105 6 0 91.127-72.754 165-162.5 165S185 388.127 185 297c0-2.009 0.035-4.009 0.105-6z m326 0c3.11 88.348 74.627 159 162.395 159 87.768 0 159.285-70.652 162.395-159 0.07 1.991 0.105 3.991 0.105 6 0 91.127-72.754 165-162.5 165S511 388.127 511 297c0-2.009 0.035-4.009 0.105-6z" fill="#ffffff" /><path d="M639.5 365c-45.563 0-82.5-36.937-82.5-82.5s36.937-82.5 82.5-82.5 82.5 36.937 82.5 82.5-36.937 82.5-82.5 82.5z m39.5-85c14.912 0 27-12.088 27-27s-12.088-27-27-27-27 12.088-27 27 12.088 27 27 27z m-365.5 85c-45.563 0-82.5-36.937-82.5-82.5s36.937-82.5 82.5-82.5 82.5 36.937 82.5 82.5-36.937 82.5-82.5 82.5z m39.5-85c14.912 0 27-12.088 27-27s-12.088-27-27-27-27 12.088-27 27 12.088 27 27 27z" fill="#ffffff" /></svg>