<?xml version="1.0" standalone="no"?><!DOCTYPE svg PUBLIC "-//W3C//DTD SVG 1.1//EN" "http://www.w3.org/Graphics/SVG/1.1/DTD/svg11.dtd"><svg class="icon" width="20px" height="20.00px" viewBox="0 0 1024 1024" version="1.1" xmlns="http://www.w3.org/2000/svg"><path d="M461.56 524.46a35.38 35.38 0 0 0 2.66 2.4 35 35 0 0 0 46.84-2.4l130.71-130.71a35 35 0 0 0-49.5-49.5l-106 106-42.93-42.93a35 35 0 0 0-49.5 49.5z" fill="#ffffff" /><path d="M794.83 48h-554a115.13 115.13 0 0 0-115 115v706a115.13 115.13 0 0 0 115 115h554a115.13 115.13 0 0 0 115-115V163a115.13 115.13 0 0 0-115-115zM354.48 265.66A231 231 0 1 1 286.83 429a229.49 229.49 0 0 1 67.65-163.34zM756.83 836h-478a35 35 0 0 1 0-70h478a35 35 0 0 1 0 70z" fill="#ffffff" /></svg>