<?xml version="1.0" encoding="utf-8"?>
<!-- Generator: Adobe Illustrator 24.1.2, SVG Export Plug-In . SVG Version: 6.00 Build 0)  -->
<svg version="1.1" id="图层_1" xmlns="http://www.w3.org/2000/svg" xmlns:xlink="http://www.w3.org/1999/xlink" x="0px" y="0px"
	 viewBox="0 0 16.15 20" style="enable-background:new 0 0 16.15 20;" xml:space="preserve">
<style type="text/css">
	.st0{fill:#FFFFFF;}
</style>
<g>
	<path class="st0" d="M15.53,2.36c-0.37,0-0.62,0.25-0.62,0.62v14.41c0,0.62-0.62,1.24-1.24,1.24H2.73c-0.74,0-1.61-0.62-1.61-1.24
		v-1.37c0-0.62,0.75-0.99,1.49-0.99h10.44c0.37,0,0.62-0.25,0.62-0.62V2.24c0-1.37-0.99-2.24-2.48-2.24H2.73C1.36,0,0,0.75,0,2.24
		v15.65c0.12,1.12,1.24,1.99,2.36,2.11h11.3c1.37,0,2.48-1.12,2.48-2.36V2.98C16.15,2.73,15.9,2.36,15.53,2.36L15.53,2.36z
		 M15.53,2.36"/>
	<path class="st0" d="M13.17,16.27H2.98c-0.37,0-0.62,0.25-0.62,0.62c0,0.38,0.25,0.62,0.62,0.62h10.19c0.37,0,0.62-0.25,0.62-0.62
		C13.79,16.52,13.54,16.27,13.17,16.27L13.17,16.27z M13.17,16.27"/>
</g>
</svg>
