<?xml version="1.0" encoding="utf-8"?>
<!-- Generator: Adobe Illustrator 24.1.2, SVG Export Plug-In . SVG Version: 6.00 Build 0)  -->
<svg version="1.1" id="图层_1" xmlns="http://www.w3.org/2000/svg" xmlns:xlink="http://www.w3.org/1999/xlink" x="0px" y="0px"
	 viewBox="0 0 18 18.95" style="enable-background:new 0 0 18 18.95;" xml:space="preserve">
<style type="text/css">
	.st0{fill:#FFFFFF;}
</style>
<g>
	<g>
		<path class="st0" d="M8.73,0c2.68,0,4.85,2.13,4.85,4.75c0,1.79-0.86,3.35-2.44,4.18c1.21,0.35,2.33,0.96,3.28,1.79
			c-1.9,0.26-3.62,1.29-4.76,2.83c-1.14,1.55-1.6,3.49-1.28,5.39c-2.97,0-5.77,0-6.58,0C0.06,18.93,0,18.08,0,17.27
			c0-3.87,2.66-7.34,6.23-8.34C4.66,8.1,3.87,6.55,3.87,4.75C3.87,2.13,6.05,0,8.73,0L8.73,0z M8.73,0"/>
		<path class="st0" d="M16.03,16.8l0.99,0.99c0.18,0.18,0.58,0.16,0.78-0.04c0.14-0.14,0.15-0.27,0.15-0.4L18,13.57
			c0.02-0.26-0.04-0.45-0.22-0.64c-0.18-0.18-0.45-0.17-0.71-0.16l-3.8,0.02c-0.13,0.01-0.26,0.02-0.4,0.15
			c-0.21,0.21-0.22,0.47-0.04,0.65L14,14.77c-1.24,1.37-2.66,1.71-4.33,1.42c-0.19-0.06-0.32-0.05-0.46,0.09
			c-0.14,0.14-0.22,0.47-0.04,0.65C9.79,17.41,12.33,20.13,16.03,16.8L16.03,16.8z M16.03,16.8"/>
	</g>
</g>
</svg>
