<?xml version="1.0" encoding="utf-8"?>
<!-- Generator: Adobe Illustrator 24.1.2, SVG Export Plug-In . SVG Version: 6.00 Build 0)  -->
<svg version="1.1" id="图层_1" xmlns="http://www.w3.org/2000/svg" xmlns:xlink="http://www.w3.org/1999/xlink" x="0px" y="0px"
	 viewBox="0 0 20 20" style="enable-background:new 0 0 20 20;" xml:space="preserve">
<style type="text/css">
	.st0{clip-path:url(#SVGID_2_);fill:#FFFFFF;}
	.st1{fill:#FFFFFF;}
</style>
<g>
	<g>
		<defs>
			<rect id="SVGID_1_" y="0" width="20" height="20"/>
		</defs>
		<clipPath id="SVGID_2_">
			<use xlink:href="#SVGID_1_"  style="overflow:visible;"/>
		</clipPath>
		<path class="st0" d="M1.44,0h17.11c0.95,0,1.43,0.48,1.43,1.43c0,0.95-0.48,1.43-1.43,1.43H1.44c-0.95,0-1.43-0.48-1.43-1.43
			C0.02,0.48,0.49,0,1.44,0L1.44,0z M1.44,0"/>
	</g>
	<path class="st1" d="M17.82,19.96h-6.4v-5.69h2.86L10,8.56l-4.28,5.71h2.85v5.69H2.14C0.96,19.96,0,19,0,17.82V6.42
		c0-1.18,0.96-2.14,2.14-2.14h15.68c1.18,0,2.14,0.96,2.14,2.14v11.41C19.96,19,19,19.96,17.82,19.96L17.82,19.96z M17.82,19.96"/>
</g>
</svg>
