<?xml version="1.0" encoding="utf-8"?>
<svg version="1.1" xmlns:xlink="http://www.w3.org/1999/xlink" width="54px" height="54px" xmlns="http://www.w3.org/2000/svg">
  <defs>
    <filter x="273px" y="209px" width="54px" height="54px" filterUnits="userSpaceOnUse" id="filter333">
      <feOffset dx="0" dy="3" in="SourceAlpha" result="shadowOffsetInner" />
      <feGaussianBlur stdDeviation="2.5" in="shadowOffsetInner" result="shadowGaussian" />
      <feComposite in2="shadowGaussian" operator="atop" in="SourceAlpha" result="shadowComposite" />
      <feColorMatrix type="matrix" values="0 0 0 0 0  0 0 0 0 0  0 0 0 0 0  0 0 0 0.349019607843137 0  " in="shadowComposite" />
    </filter>
    <g id="widget334">
      <path d="M 300 212  C 311.76 212  321 221.24  321 233  C 321 244.76  311.76 254  300 254  C 288.24 254  279 244.76  279 233  C 279 221.24  288.24 212  300 212  Z " fill-rule="nonzero" fill="#30cc51" stroke="none" />
      <path d="M 300 212  C 311.76 212  321 221.24  321 233  C 321 244.76  311.76 254  300 254  C 288.24 254  279 244.76  279 233  C 279 221.24  288.24 212  300 212  Z " stroke-width="2" stroke="#ffffff" fill="none" />
    </g>
  </defs>
  <g transform="matrix(1 0 0 1 -273 -209 )">
    <use xlink:href="#widget334" filter="url(#filter333)" />
    <use xlink:href="#widget334" />
  </g>
</svg>