<?xml version="1.0" encoding="utf-8"?>
<svg version="1.1" xmlns:xlink="http://www.w3.org/1999/xlink" width="54px" height="54px" xmlns="http://www.w3.org/2000/svg">
  <defs>
    <filter x="49px" y="321px" width="54px" height="54px" filterUnits="userSpaceOnUse" id="filter335">
      <feOffset dx="0" dy="3" in="SourceAlpha" result="shadowOffsetInner" />
      <feGaussianBlur stdDeviation="2.5" in="shadowOffsetInner" result="shadowGaussian" />
      <feComposite in2="shadowGaussian" operator="atop" in="SourceAlpha" result="shadowComposite" />
      <feColorMatrix type="matrix" values="0 0 0 0 0  0 0 0 0 0  0 0 0 0 0  0 0 0 0.349019607843137 0  " in="shadowComposite" />
    </filter>
    <g id="widget336">
      <path d="M 76 324  C 87.76 324  97 333.24  97 345  C 97 356.76  87.76 366  76 366  C 64.24 366  55 356.76  55 345  C 55 333.24  64.24 324  76 324  Z " fill-rule="nonzero" fill="#318cff" stroke="none" />
      <path d="M 76 324  C 87.76 324  97 333.24  97 345  C 97 356.76  87.76 366  76 366  C 64.24 366  55 356.76  55 345  C 55 333.24  64.24 324  76 324  Z " stroke-width="2" stroke="#ffffff" fill="none" />
    </g>
  </defs>
  <g transform="matrix(1 0 0 1 -49 -321 )">
    <use xlink:href="#widget336" filter="url(#filter335)" />
    <use xlink:href="#widget336" />
  </g>
</svg>