<?xml version="1.0" encoding="utf-8"?>
<svg version="1.1" xmlns:xlink="http://www.w3.org/1999/xlink" width="54px" height="54px" xmlns="http://www.w3.org/2000/svg">
  <defs>
    <filter x="161px" y="274px" width="54px" height="54px" filterUnits="userSpaceOnUse" id="filter340">
      <feOffset dx="0" dy="3" in="SourceAlpha" result="shadowOffsetInner" />
      <feGaussianBlur stdDeviation="2.5" in="shadowOffsetInner" result="shadowGaussian" />
      <feComposite in2="shadowGaussian" operator="atop" in="SourceAlpha" result="shadowComposite" />
      <feColorMatrix type="matrix" values="0 0 0 0 0  0 0 0 0 0  0 0 0 0 0  0 0 0 0.349019607843137 0  " in="shadowComposite" />
    </filter>
    <g id="widget341">
      <path d="M 188 277  C 199.76 277  209 286.24  209 298  C 209 309.76  199.76 319  188 319  C 176.24 319  167 309.76  167 298  C 167 286.24  176.24 277  188 277  Z " fill-rule="nonzero" fill="#05d2b1" stroke="none" />
      <path d="M 188 277  C 199.76 277  209 286.24  209 298  C 209 309.76  199.76 319  188 319  C 176.24 319  167 309.76  167 298  C 167 286.24  176.24 277  188 277  Z " stroke-width="2" stroke="#ffffff" fill="none" />
    </g>
  </defs>
  <g transform="matrix(1 0 0 1 -161 -274 )">
    <use xlink:href="#widget341" filter="url(#filter340)" />
    <use xlink:href="#widget341" />
  </g>
</svg>