<?xml version="1.0" encoding="utf-8"?>
<!-- Generator: Adobe Illustrator 24.1.2, SVG Export Plug-In . SVG Version: 6.00 Build 0)  -->
<svg version="1.1" id="图层_1" xmlns="http://www.w3.org/2000/svg" xmlns:xlink="http://www.w3.org/1999/xlink" x="0px" y="0px"
	 viewBox="0 0 335 173" style="enable-background:new 0 0 335 173;" xml:space="preserve">
<style type="text/css">
	.st0{fill:url(#SVGID_1_);}
	.st1{opacity:0.15;fill:#FFFFFF;}
	.st2{opacity:0.15;}
	.st3{fill:#FFFFFF;}
</style>
<linearGradient id="SVGID_1_" gradientUnits="userSpaceOnUse" x1="4.9507" y1="4.1637" x2="329.186" y2="168.399">
	<stop  offset="0" style="stop-color:#58C1FF"/>
	<stop  offset="1" style="stop-color:#4E72FD"/>
</linearGradient>
<path class="st0" d="M325,0H10C4.48,0,0,4.48,0,10v153c0,5.52,4.48,10,10,10h315c5.52,0,10-4.48,10-10V10C335,4.48,330.52,0,325,0z"
	/>
<path class="st1" d="M257.33,173h12.2c0.06-0.32,0.1-0.64,0.1-0.97c0-1.46-0.58-2.86-1.61-3.89l-12.38-12.4
	c-2.15-2.15-5.63-2.15-7.78-0.01s-2.15,5.63-0.01,7.78L257.33,173z"/>
<g class="st2">
	<polygon class="st3" points="311.99,173 335,159 335,146.13 290.85,173 	"/>
	<path class="st3" d="M327.46,69.73c-0.92-2.84-3.47-4.85-6.46-5.06c-2.98-0.21-5.79,1.41-7.1,4.1l-13.96,29.33l-25.78-9.22
		c0.59-6.88-2.19-13.62-7.46-18.08c-6.55-5.47-15.59-6.59-24.29-2.9c-0.68,0.28-1.3,0.66-1.86,1.13
		c-7.31,6.05-10.5,14.61-8.58,22.91c1.53,6.72,6.23,12.28,12.6,14.91l-3.65,27.13l-32.47-1.08c-2.99-0.07-5.72,1.68-6.9,4.43
		c-1.18,2.75-0.58,5.93,1.53,8.06l27.9,27.6h15.59l-29.06-28.78l26.39,0.88c3.74,0.11,6.97-2.61,7.48-6.32l4.49-33.49
		c0.49-3.67-1.84-7.13-5.43-8.06l-0.1-0.02c-3.8-0.92-6.76-3.9-7.64-7.71c-0.92-4.05,0.7-8.26,4.46-11.62
		c4.69-1.83,9.17-1.33,12.36,1.38c3,2.54,4.3,6.56,3.36,10.37c-0.87,3.62,1.12,7.31,4.62,8.59l31.81,11.4
		c3.53,1.25,7.43-0.36,9.05-3.74L319.67,82L335,131.03V93.99L327.46,69.73z"/>
</g>
</svg>
