<?xml version="1.0" encoding="utf-8"?>
<!-- Generator: Adobe Illustrator 24.1.2, SVG Export Plug-In . SVG Version: 6.00 Build 0)  -->
<svg version="1.1" id="图层_1" xmlns="http://www.w3.org/2000/svg" xmlns:xlink="http://www.w3.org/1999/xlink" x="0px" y="0px"
	 viewBox="0 0 335 173" style="enable-background:new 0 0 335 173;" xml:space="preserve">
<style type="text/css">
	.st0{fill:url(#SVGID_1_);}
	.st1{opacity:0.1;}
	.st2{fill:#FFFFFF;}
	.st3{fill:#C6171E;}
	.st4{fill:#F3E179;}
</style>
<linearGradient id="SVGID_1_" gradientUnits="userSpaceOnUse" x1="4.9507" y1="4.1637" x2="329.186" y2="168.399">
	<stop  offset="0" style="stop-color:#58C1FF"/>
	<stop  offset="1" style="stop-color:#4E72FD"/>
</linearGradient>
<path class="st0" d="M325,0H10C4.48,0,0,4.48,0,10v153c0,5.52,4.48,10,10,10h315c5.52,0,10-4.48,10-10V10C335,4.48,330.52,0,325,0z"
	/>
<g class="st1">
	<path class="st2" d="M335,149.05c-11.3,10.1-26.21,16.25-42.56,16.25c-35.3,0-63.91-28.61-63.91-63.91s28.61-63.91,63.91-63.91
		c16.35,0,31.26,6.15,42.56,16.25v-7.89c-11.8-9.05-26.55-14.44-42.56-14.44c-38.66,0-70,31.34-70,70s31.34,70,70,70
		c16.02,0,30.77-5.39,42.56-14.44V149.05z"/>
	<path class="st2" d="M335,116.84c-5.95,16.3-21.02,28.21-39.06,29.59v-8.99c18.7-1.86,33.3-17.61,33.3-36.75
		c0-19.14-14.6-34.89-33.3-36.75v-7.59c18.04,1.38,33.12,13.31,39.06,29.61V66.78c-10.07-12.31-25.39-20.17-42.56-20.17
		c-28.86,0-52.52,22.21-54.74,50.44h9.66c2.06-21.51,19.23-38.62,40.81-40.63v7.57c-18.54,2.02-32.97,17.68-32.97,36.71
		c0,19.03,14.43,34.7,32.97,36.71v8.97c-21.78-2.03-39.07-19.45-40.86-41.25h-9.65c1.92,28.52,25.71,51.05,54.78,51.05
		c17.17,0,32.5-7.87,42.56-20.18V116.84z M295.94,72.5c14.28,1.76,25.34,13.98,25.34,28.77c0,14.8-11.06,27.01-25.34,28.78V72.5z
		 M288.17,129.97c-13.98-2.04-24.71-14.11-24.71-28.69v0c0-14.58,10.73-26.65,24.71-28.69V129.97z"/>
</g>
<g>
	<path class="st3" d="M20,156c0,6.63,5.37,12,12,12c6.63,0,12-5.37,12-12s-5.37-12-12-12C25.37,144,20,149.37,20,156L20,156z
		 M20,156"/>
	<path class="st4" d="M32,144c-6.63,0-12,5.37-12,12c0,6.63,5.37,12,12,12c6.63,0,12-5.37,12-12C44,149.37,38.63,144,32,144L32,144z
		 M40.15,164.15c-2.09,2.08-4.96,3.37-8.14,3.37c-3.05,0-5.99-1.21-8.14-3.37c-2.16-2.16-3.38-5.09-3.37-8.15
		c0-3.18,1.29-6.06,3.37-8.15c2.16-2.16,5.09-3.38,8.14-3.37c3.18,0,6.06,1.29,8.14,3.37c2.08,2.09,3.37,4.97,3.37,8.15
		C43.52,159.06,42.31,161.99,40.15,164.15L40.15,164.15z M38,162c-1.33,1.33-3.1,2.22-5.07,2.44v-1.57
		c3.39-0.45,5.99-3.35,5.99-6.86c0-3.51-2.61-6.41-5.99-6.86v-1.58c1.97,0.21,3.74,1.1,5.08,2.44c1.38,1.38,2.29,3.23,2.46,5.29h1.7
		c-0.37-5.29-4.77-9.47-10.15-9.47c-5.38,0-9.79,4.18-10.15,9.47h1.7c0.17-2.06,1.08-3.91,2.45-5.29c1.33-1.33,3.1-2.22,5.08-2.44
		v1.58c-3.38,0.45-6,3.35-6,6.86c0,3.51,2.61,6.41,6,6.86v1.57c-1.92-0.21-3.71-1.07-5.07-2.44c-1.42-1.42-2.29-3.29-2.45-5.29h-1.7
		c0.36,5.29,4.77,9.47,10.15,9.47c5.38,0,9.78-4.18,10.15-9.47h-1.7C40.29,158.77,39.38,160.62,38,162L38,162z M32.92,150.85
		c1.05,0.19,2.02,0.69,2.77,1.45c0.98,0.98,1.54,2.31,1.53,3.7c0,1.39-0.55,2.72-1.53,3.7c-0.75,0.76-1.72,1.26-2.77,1.45V150.85z
		 M31.08,161.15c-1.05-0.19-2.02-0.7-2.77-1.45c-0.98-0.98-1.53-2.31-1.53-3.7c0-1.45,0.58-2.75,1.53-3.7
		c0.75-0.76,1.72-1.26,2.77-1.45V161.15z M31.08,161.15"/>
</g>
</svg>
