<?xml version="1.0" standalone="no"?><!DOCTYPE svg PUBLIC "-//W3C//DTD SVG 1.1//EN" "http://www.w3.org/Graphics/SVG/1.1/DTD/svg11.dtd"><svg class="icon" width="20px" height="20.00px" viewBox="0 0 1024 1024" version="1.1" xmlns="http://www.w3.org/2000/svg"><path d="M505.344 76.8c115.712 0 209.8176 92.16 209.7664 205.4656 0 77.568-37.376 144.7424-105.3184 180.736a367.1552 367.1552 0 0 1 141.824 77.4656A307.2 307.2 0 0 0 490.6496 896c-128.3584 0.0512-249.6 0.1024-284.4672-0.1536-75.7248-0.512-78.1824-37.5808-78.1824-72.2944 0-167.3728 115.0976-317.2864 269.5168-360.4992C329.5232 427.008 295.424 359.8848 295.424 282.2656 295.4752 168.96 389.632 76.8 505.3952 76.8z" fill="#ffffff" /><path d="M820.8896 803.1232l42.5984 42.5984c7.9872 7.9872 24.9856 6.9632 33.792-1.8432 6.144-6.144 6.4512-11.5712 6.656-17.152l2.1504-163.072c0.7168-11.264-1.536-19.5584-9.6768-27.648-7.936-7.9872-19.3024-7.168-30.5152-6.8096l-164.4544 0.8192c-5.7856 0.3584-11.3664 0.8704-17.152 6.656-8.96 8.96-9.6768 20.1728-1.6896 28.16l50.5856 50.5856c-53.76 59.1872-114.8928 74.1376-187.392 61.44-8.0896-2.4064-13.8752-2.048-19.8144 3.8912-5.9392 5.9392-9.728 20.1728-1.6896 28.16 27.136 20.6848 136.7552 138.1376 296.6016-5.7856z" fill="#ffffff" /></svg>