<?xml version="1.0" encoding="utf-8"?>
<!-- Generator: Adobe Illustrator 24.1.2, SVG Export Plug-In . SVG Version: 6.00 Build 0)  -->
<svg version="1.1" id="图层_1" xmlns="http://www.w3.org/2000/svg" xmlns:xlink="http://www.w3.org/1999/xlink" x="0px" y="0px"
	 viewBox="0 0 22 18.48" style="enable-background:new 0 0 22 18.48;" xml:space="preserve">
<style type="text/css">
	.st0{clip-path:url(#SVGID_2_);fill:#FFFFFF;}
	.st1{fill:#FFFFFF;}
</style>
<g>
	<g>
		<defs>
			<rect id="SVGID_1_" x="0.14" y="-0.05" width="22" height="18.5"/>
		</defs>
		<clipPath id="SVGID_2_">
			<use xlink:href="#SVGID_1_"  style="overflow:visible;"/>
		</clipPath>
		<path class="st0" d="M11.14,12.53c-0.27,0-0.53-0.06-0.77-0.19L1.05,7.5C0.65,7.3,0.35,6.94,0.22,6.52
			C0.09,6.1,0.12,5.64,0.33,5.24C0.5,4.91,0.77,4.65,1.11,4.5l9.31-4.38c0.45-0.21,0.97-0.21,1.43,0l9.32,4.4
			c0.84,0.39,1.19,1.39,0.8,2.23c-0.16,0.33-0.42,0.6-0.74,0.77l-9.31,4.83c-0.24,0.12-0.5,0.19-0.77,0.19V12.53z M11.14,12.53"/>
	</g>
	<rect x="20.23" y="6.89" class="st1" width="1.23" height="4.63"/>
	<g>
		<path class="st1" d="M20.65,12.42l-0.15-0.27c-0.02-0.03-0.05-0.06-0.08-0.08l-0.27-0.15c-0.11-0.06-0.14-0.19-0.09-0.29
			c0.02-0.04,0.05-0.07,0.09-0.09l0.27-0.15c0.04-0.02,0.06-0.05,0.08-0.09l0.15-0.27c0.04-0.07,0.11-0.11,0.19-0.11
			c0.08,0,0.15,0.04,0.19,0.11l0.15,0.27c0.02,0.04,0.05,0.07,0.09,0.09l0.27,0.15c0.11,0.06,0.14,0.19,0.09,0.29
			c-0.02,0.04-0.05,0.07-0.09,0.09l-0.27,0.15c-0.04,0.02-0.07,0.05-0.09,0.08l-0.15,0.27c-0.06,0.1-0.19,0.14-0.29,0.09
			C20.71,12.48,20.68,12.45,20.65,12.42L20.65,12.42z M20.65,12.42"/>
		<path class="st1" d="M18.5,10.03l-6.6,3.41c-0.57,0.29-1.24,0.29-1.81,0l-6.31-3.28v3.2c-0.01,0.06-0.01,0.13,0,0.19
			c0.03,0.69,0.25,1.35,0.64,1.92c0.42,0.64,0.97,1.18,1.62,1.59c3.14,1.88,7.07,1.88,10.21,0c0.65-0.41,1.2-0.95,1.62-1.59
			c0.4-0.61,0.62-1.32,0.62-2.05v-3.38L18.5,10.03z M18.5,10.03"/>
	</g>
</g>
</svg>
