<?xml version="1.0" standalone="no"?><!DOCTYPE svg PUBLIC "-//W3C//DTD SVG 1.1//EN" "http://www.w3.org/Graphics/SVG/1.1/DTD/svg11.dtd"><svg class="icon" width="20px" height="20.00px" viewBox="0 0 1024 1024" version="1.1" xmlns="http://www.w3.org/2000/svg"><path d="M109.714286 438.272L182.857143 585.142857V146.285714c0-12.032 21.504-41.216 37.12-55.296C235.629714 76.873143 281.6 73.106286 292.571429 73.142857h435.675428c43.264 2.121143 70.217143 8.045714 80.969143 17.846857 35.913143 32.804571 31.926857 86.308571 31.926857 91.867429v365.714286l73.142857-112.64V118.710857c0-31.341714-26.989714-61.44-47.286857-83.602286-20.333714-22.162286-47.872-34.633143-76.580571-34.596571L788.589714 0h-559.542857C200.192 0 172.617143 12.544 152.32 34.852571 132.022857 57.124571 109.568 87.296 109.714286 118.710857v319.561143z" fill="#ffffff" /><path d="M0 911.36c1.353143 62.098286 47.542857 111.835429 104.411429 112.493714 0.402286 0 0.841143 0.146286 1.243428 0.146286h812.726857c0.731429 0 1.462857-0.219429 2.230857-0.256a100.717714 100.717714 0 0 0 71.570286-32.694857l2.011429-2.304a118.125714 118.125714 0 0 0 17.005714-26.148572 122.514286 122.514286 0 0 0 12.8-53.942857V368.786286c-0.073143-3.620571-0.804571-6.985143-1.170286-10.496l-0.073143-0.475429c-6.290286-58.148571-51.565714-102.912-106.276571-101.778286H877.714286v219.355429C648.155429 597.321143 526.262857 658.285714 512 658.285714L146.285714 475.392V256H105.654857c-28.050286 0-54.893714 12.141714-74.715428 33.755429a119.808 119.808 0 0 0-29.805715 68.754285c-0.438857 4.242286-1.133714 8.411429-1.133714 12.690286v540.16zM664.868571 292.571429c16.530286 0 29.988571-16.384 29.988572-36.571429s-13.458286-36.571429-29.988572-36.571429H359.131429C342.564571 219.428571 329.142857 235.812571 329.142857 256s13.421714 36.571429 29.988572 36.571429h305.737142z" fill="#ffffff" /><path d="M586.020571 438.857143A36.205714 36.205714 0 0 0 621.714286 402.285714a36.205714 36.205714 0 0 0-35.693715-36.571428H364.836571A36.132571 36.132571 0 0 0 329.142857 402.285714c0 20.187429 15.981714 36.571429 35.693714 36.571429h221.184z" fill="#ffffff" /></svg>