<?xml version="1.0" standalone="no"?><!DOCTYPE svg PUBLIC "-//W3C//DTD SVG 1.1//EN" "http://www.w3.org/Graphics/SVG/1.1/DTD/svg11.dtd"><svg class="icon" width="20px" height="19.92px" viewBox="0 0 1028 1024" version="1.1" xmlns="http://www.w3.org/2000/svg"><path d="M142.05888 864.23L91.50888 952.294a43.202 43.202 0 0 0 33.222 71.68c8.166 0 27.596-2.048 28.101-1.53h365.853l-0.505-0.518A510.989 510.989 0 0 0 514.05688 0h-4.096a510.782 510.782 0 0 0-367.901 864.243z" fill="#ffffff" /><path d="M291.65488 388.86h453.67q32.406 0 32.406 32.406 0 32.405-32.406 32.405h-453.67q-32.405 0-32.405-32.405t32.405-32.405zM291.65488 609.215H512.00888q32.405 0 32.405 32.405T512.00888 674.025H291.65488q-32.405 0-32.405-32.405t32.405-32.405z" fill="#ff9c00" /></svg>