<?xml version="1.0" encoding="utf-8"?>
<!-- Generator: Adobe Illustrator 24.1.2, SVG Export Plug-In . SVG Version: 6.00 Build 0)  -->
<svg version="1.1" id="图层_1" xmlns="http://www.w3.org/2000/svg" xmlns:xlink="http://www.w3.org/1999/xlink" x="0px" y="0px"
	 viewBox="0 0 20 16.77" style="enable-background:new 0 0 20 16.77;" xml:space="preserve">
<style type="text/css">
	.st0{fill:#FFFFFF;}
</style>
<g>
	<rect x="5.56" y="0.11" class="st0" width="8.89" height="7.78"/>
	<path class="st0" d="M18.89,3.44h-3.33v4.44h1.67c0.33,0,0.56,0.22,0.56,0.56c0,0.33-0.22,0.56-0.56,0.56H2.78
		c-0.33,0-0.56-0.22-0.56-0.56c0-0.33,0.22-0.56,0.56-0.56h1.67V3.44H1.11C0.44,3.44,0,3.88,0,4.55v11.11
		c0,0.67,0.44,1.11,1.11,1.11h17.78c0.67,0,1.11-0.44,1.11-1.11V4.55C20,3.88,19.56,3.44,18.89,3.44L18.89,3.44z M18.89,3.44"/>
</g>
</svg>
