<?xml version="1.0" standalone="no"?><!DOCTYPE svg PUBLIC "-//W3C//DTD SVG 1.1//EN" "http://www.w3.org/Graphics/SVG/1.1/DTD/svg11.dtd"><svg class="icon" width="20px" height="20.00px" viewBox="0 0 1024 1024" version="1.1" xmlns="http://www.w3.org/2000/svg"><path d="M266.24 204.8h471.04v404.48H266.24z" fill="#d81e06" /><path d="M879.104 425.472c-0.512 33.792-5.632 67.072-15.872 99.328-8.192 27.136-19.968 52.736-33.792 77.312-8.192 14.848-16.896 29.184-26.112 43.008-7.68 11.264-16.384 20.992-24.576 31.232-9.216 11.776-18.944 23.552-28.672 35.328-10.24 12.8-20.48 25.088-30.72 37.888-9.216 11.776-18.944 23.552-28.16 34.816-10.24 12.8-20.48 25.088-30.72 37.888-9.216 11.264-18.432 23.04-27.648 34.304l-29.184 36.864c-10.24 12.288-19.968 25.088-30.208 37.376-12.8 15.872-29.184 26.624-50.176 29.696-26.624 3.584-48.64-4.608-66.048-24.064-10.24-11.264-19.456-24.064-29.184-36.352-9.728-12.288-19.456-24.064-29.184-35.84-11.264-13.824-22.528-28.16-33.792-41.984-10.24-12.288-20.48-24.576-30.208-37.376-9.216-11.264-18.432-23.04-27.648-34.304l-24.576-30.72c-11.776-14.336-23.04-28.672-34.816-43.52-7.68-9.216-15.36-18.432-22.528-28.16-6.656-9.216-13.312-19.456-18.944-29.184-7.168-12.8-14.336-25.6-20.992-38.912-13.312-26.112-23.552-53.76-29.696-82.432-3.072-12.8-4.096-26.112-5.632-38.912-1.536-13.312-2.56-27.136-2.048-40.448 1.024-18.944 3.584-38.4 6.144-57.344 3.584-25.088 11.264-49.152 20.48-72.192 10.752-26.112 24.576-51.2 40.96-74.24 13.824-19.456 29.696-36.864 46.592-53.248 19.456-18.432 40.96-34.304 64.512-48.128s47.616-25.088 73.728-32.768c19.456-5.632 39.424-10.752 59.392-13.824 24.064-4.096 48.128-4.608 72.704-3.584 27.648 1.536 54.784 6.144 80.896 13.824 22.528 6.656 44.544 15.36 65.536 26.112 22.016 11.776 43.52 24.576 62.464 40.96 12.288 10.24 24.064 20.992 35.328 32.256 20.48 20.992 37.888 44.544 52.736 69.632 14.848 25.088 26.624 51.712 34.304 79.872 4.608 16.896 8.192 33.792 10.752 50.688 2.56 16.384 3.072 32.768 4.608 49.152z m-511.488 0c0.512 80.384 65.024 143.36 142.848 143.872 83.968 1.024 146.944-64.512 147.456-142.848 0.512-81.92-64-142.848-139.776-145.408-84.992-3.072-151.04 66.048-150.528 144.384z" fill="#ffffff" /></svg>