<?xml version="1.0" standalone="no"?><!DOCTYPE svg PUBLIC "-//W3C//DTD SVG 1.1//EN" "http://www.w3.org/Graphics/SVG/1.1/DTD/svg11.dtd"><svg class="icon" width="20px" height="20.00px" viewBox="0 0 1024 1024" version="1.1" xmlns="http://www.w3.org/2000/svg"><path d="M527.753846 259.938462m-259.938461 0a259.938462 259.938462 0 1 0 519.876923 0 259.938462 259.938462 0 1 0-519.876923 0Z" fill="#ffffff" /><path d="M216.615385 768m-216.615385 0a216.615385 216.615385 0 1 0 433.230769 0 216.615385 216.615385 0 1 0-433.230769 0Z" fill="#ffffff" /><path d="M787.692308 693.169231m-173.292308 0a173.292308 173.292308 0 1 0 346.584615 0 173.292308 173.292308 0 1 0-346.584615 0Z" fill="#ffffff" /><path d="M418.998554 397.323639m31.0355 24.24759l0 0q31.0355 24.24759 6.78791 55.283091l-145.485542 186.213003q-24.24759 31.0355-55.283091 6.78791l0 0q-31.0355-24.24759-6.78791-55.283091l145.485542-186.213003q24.24759-31.0355 55.283091-6.78791Z" fill="#ffffff" /><path d="M573.596538 419.678459m34.108077-19.692307l0 0q34.108077-19.692308 53.800386 14.41577l118.153846 204.648464q19.692308 34.108077-14.41577 53.800385l0 0q-34.108077 19.692308-53.800385-14.415769l-118.153846-204.648465q-19.692308-34.108077 14.415769-53.800385Z" fill="#ffffff" /></svg>