<?xml version="1.0" encoding="utf-8"?>
<!-- Generator: Adobe Illustrator 24.1.2, SVG Export Plug-In . SVG Version: 6.00 Build 0)  -->
<svg version="1.1" id="图层_1" xmlns="http://www.w3.org/2000/svg" xmlns:xlink="http://www.w3.org/1999/xlink" x="0px" y="0px"
	 viewBox="0 0 335 38" style="enable-background:new 0 0 335 38;" xml:space="preserve">
<style type="text/css">
	.st0{fill:#4E72FD;}
	.st1{opacity:0.06;fill:#FFFFFF;}
	.st2{opacity:0.09;fill:#FFFFFF;}
	.st3{opacity:0.12;fill:#FFFFFF;}
</style>
<path class="st0" d="M328,0.07V0H8C3.58,0,0,3.58,0,8v30h335V8C335,3.92,331.95,0.56,328,0.07z"/>
<g>
	<path class="st1" d="M334.92,9.87V38H0V19.71c33.43,1.38,67.25,0.83,100.22-1.62c12.51-0.92,24.64-2.15,36.81-3.48
		c10.11-1.08,20.23-2.22,30.61-3.3C212.51,6.61,262.11,3.04,334.92,9.87L334.92,9.87z M334.92,9.87"/>
	<path class="st2" d="M334.92,13.01V38H0V13.04c17.99-2.16,36.39-3.84,55.05-5.02c7.14-0.44,14.37-0.67,21.61-0.7
		c39.52,0,60.85,1.46,91.02,4.01c12.27,1.04,26.01,2.25,43.05,3.62C269.05,19.64,290.85,19.94,334.92,13.01L334.92,13.01z
		 M334.92,13.01"/>
	<path class="st3" d="M334.92,35.65V38H0V9c16.85,0.76,35.4,1.7,55.05,2.84c26.43,1.54,54.51,3.44,81.98,5.77
		c30.88,2.62,60.95,5.78,86.99,9.57C258.92,32.25,296.58,35.12,334.92,35.65L334.92,35.65z M334.92,35.65"/>
</g>
</svg>
