<?xml version="1.0" standalone="no"?><!DOCTYPE svg PUBLIC "-//W3C//DTD SVG 1.1//EN" "http://www.w3.org/Graphics/SVG/1.1/DTD/svg11.dtd"><svg t="1607068645925" class="icon" viewBox="0 0 1024 1024" version="1.1" xmlns="http://www.w3.org/2000/svg" p-id="3323" xmlns:xlink="http://www.w3.org/1999/xlink" width="200" height="200"><defs><style type="text/css"></style></defs><path d="M773.6 317.1c-2.4 0-4.7-0.9-6.4-2.6L712 259.3c-3.5-3.5-3.5-9.2 0-12.7L814.8 144l0.6-0.6c5.7-4.8 12.9-7.3 20.7-7.3 18 0 38.3 13.5 48.2 32.1 7.8 14.7 7.6 30.1-0.6 42.3-0.3 0.5-0.7 0.9-1.1 1.3L780 314.5c-1.7 1.7-4 2.6-6.4 2.6z" fill="#66C1FF" p-id="3324"></path><path d="M836.1 145.2c25.5 0 57.2 35 40.2 60.4L773.6 308.1 718.5 253l102.6-102.6c4.4-3.7 9.5-5.2 15-5.2m0-18c-9.9 0-19.1 3.2-26.5 9.4-0.4 0.4-0.8 0.7-1.2 1.1L705.8 240.3c-7 7-7 18.4 0 25.5L761 321c3.5 3.5 8.1 5.3 12.7 5.3s9.2-1.8 12.7-5.3L889 218.2c0.8-0.8 1.6-1.7 2.2-2.7 10.1-15.1 10.5-33.8 1-51.5-5.3-9.9-13.5-19.1-23.2-25.7-10.6-7.3-22-11.1-32.9-11.1z" fill="#330867" p-id="3325"></path><path d="M737.1 495.2c-51.1 0-105.6-26.6-145.7-71.1-32.5-36-52.3-79.6-55.9-122.8-3.7-44.1 10-82.5 38.4-108.1 21.7-19.6 50.1-29.9 82.1-29.9 51.1 0 105.6 26.6 145.7 71.1 32.5 36 52.3 79.6 55.9 122.8 3.7 44.1-10 82.5-38.4 108.1-21.7 19.6-50.1 29.9-82.1 29.9z" fill="#F7D7FF" p-id="3326"></path><path d="M656 172.3c46.9 0 99.1 23.8 139.1 68.1 64.4 71.5 72.5 169.1 18.1 218.2-20.7 18.6-47.4 27.6-76.1 27.6-46.9 0-99.1-23.8-139.1-68.1-64.4-71.5-72.5-169.1-18.1-218.2 20.7-18.6 47.4-27.6 76.1-27.6m0-18v18-18c-34.3 0-64.8 11.1-88.2 32.2-15.6 14.1-27.1 31.7-34.2 52.3-6.7 19.5-9.1 40.8-7.2 63.3 3.7 45.1 24.4 90.6 58.2 128.1 20.8 23.1 45.9 42.1 72.5 54.8 26.2 12.6 53.8 19.2 79.9 19.2 34.3 0 64.8-11.1 88.2-32.2 15.6-14.1 27.1-31.7 34.2-52.3 6.7-19.5 9.1-40.8 7.2-63.3-3.7-45.1-24.4-90.6-58.2-128.1-20.8-23.1-45.9-42.1-72.5-54.8-26.1-12.5-53.7-19.2-79.9-19.2z" fill="#330867" p-id="3327"></path><path d="M681.3 574.9c-56.8 0-117.4-29.6-162-79.1-36.1-40.1-58.2-88.5-62.2-136.5-4.1-48.9 11.1-91.5 42.6-119.9 24-21.7 55.5-33.1 91-33.1 56.8 0 117.4 29.6 162 79.1 36.1 40.1 58.2 88.5 62.2 136.5 4.1 48.9-11.1 91.5-42.6 119.9-24 21.7-55.5 33.1-91 33.1z" fill="#F7D7FF" p-id="3328"></path><path d="M590.7 215.4c52.4 0 110.7 26.6 155.3 76.1 71.9 79.8 81 188.9 20.2 243.7-23.1 20.8-52.9 30.8-85 30.8-52.4 0-110.7-26.6-155.3-76.1-71.9-79.9-80.9-189-20.2-243.7 23.1-20.9 53-30.8 85-30.8m0-18v18-18c-37.8 0-71.4 12.3-97.1 35.4-17.2 15.5-29.8 34.8-37.6 57.5-7.4 21.5-10 44.9-8 69.8 4.1 49.9 27 100.3 64.5 141.8 23.1 25.6 50.8 46.6 80.3 60.8 28.9 13.9 59.5 21.3 88.4 21.3 37.8 0 71.4-12.2 97.1-35.4 17.2-15.5 29.8-34.8 37.6-57.5 7.4-21.5 10-44.9 8-69.8-4.1-49.9-27-100.3-64.5-141.8-23.1-25.6-50.8-46.6-80.3-60.8-28.9-14-59.5-21.3-88.4-21.3z" fill="#330867" p-id="3329"></path><path d="M592.6 263.2c40.2 0 85.7 21.1 120.9 60.1 55.6 61.7 64.1 144.7 19 185.4-16.6 15-38.2 22.1-61.5 22.1-40.2 0-85.7-21.1-120.9-60.1-55.7-61.7-64.1-144.7-19-185.4 16.6-15 38.2-22.1 61.5-22.1m0-6c-25.7 0-48.4 8.2-65.5 23.7-11.8 10.7-20.4 24.1-25.6 40.1-4.9 15.2-6.5 32-4.7 49.8 3.7 36.3 21 73.2 48.8 104 35.1 38.9 81.9 62.1 125.3 62.1 25.7 0 48.4-8.2 65.5-23.7 11.8-10.7 20.4-24.1 25.6-40.1 4.9-15.2 6.5-32 4.7-49.8-3.7-36.3-21-73.2-48.8-104-35-38.9-81.9-62.1-125.3-62.1z" fill="#330867" p-id="3330"></path><path d="M330 760.8c-2.4 0-4.7-0.9-6.4-2.6L268.5 703c-3.5-3.5-3.5-9.2 0-12.7l322.2-322.9 0.6-0.6c5.7-4.8 12.9-7.3 20.7-7.3 18 0 38.3 13.5 48.2 32.1 7.8 14.7 7.6 30.1-0.6 42.3-0.3 0.5-0.7 0.9-1.1 1.3l-322.2 323c-1.6 1.7-3.9 2.6-6.3 2.6z" fill="#66C1FF" p-id="3331"></path><path d="M612 368.6c25.5 0 57.2 35 40.2 60.4L330 751.8l-55.2-55.2L597 373.8c4.4-3.6 9.5-5.2 15-5.2m0-18v18-18c-9.9 0-19.1 3.2-26.5 9.4-0.4 0.4-0.8 0.7-1.2 1.1L262.1 683.9c-7 7-7 18.4 0 25.4l55.2 55.2c3.4 3.4 8 5.3 12.7 5.3 4.8 0 9.4-1.9 12.7-5.3l322.2-322.9c0.8-0.8 1.6-1.7 2.2-2.7 10.1-15.1 10.5-33.8 1-51.5-5.3-9.9-13.5-19.1-23.2-25.7-10.6-7.3-22-11.1-32.9-11.1z" fill="#330867" p-id="3332"></path><path d="M493.9 588.5l-55.2-55.2 65.1-65.5c24.8-20.6 75.8 24.4 55.2 55.2l-65.1 65.5z" fill="#FFE08A" p-id="3333"></path><path d="M394.8 873.8c-59.8 0-123.7-31.1-170.7-83.3-38.1-42.2-61.3-93.3-65.5-143.9-4.3-51.5 11.6-96.3 44.8-126.2 25.3-22.8 58.4-34.8 95.8-34.8 59.8 0 123.7 31.1 170.7 83.3 38.1 42.2 61.3 93.3 65.5 143.9 4.3 51.5-11.6 96.3-44.8 126.2-25.3 22.7-58.4 34.8-95.8 34.8z" fill="#F7D7FF" p-id="3334"></path><path d="M299.2 494.5c55.3 0 116.9 28.1 164 80.4 76 84.3 85.5 199.5 21.4 257.4-24.4 22-55.9 32.5-89.8 32.5-55.3 0-116.9-28.1-164-80.4-76-84.3-85.5-199.5-21.4-257.4 24.4-21.9 55.9-32.5 89.8-32.5m0-18v18-18c-39.7 0-74.9 12.8-101.8 37.1-18 16.2-31.2 36.5-39.4 60.3-7.7 22.5-10.5 47.2-8.4 73.3 4.4 52.5 28.4 105.5 67.8 149.2 24.3 26.9 53.5 49 84.5 63.9 30.4 14.6 62.5 22.4 92.9 22.4 39.7 0 74.9-12.8 101.8-37.1 18-16.2 31.2-36.5 39.4-60.3 7.7-22.5 10.5-47.2 8.4-73.3-4.4-52.5-28.4-105.5-67.8-149.2-24.3-26.9-53.5-49-84.5-63.9-30.5-14.6-62.6-22.4-92.9-22.4z" fill="#330867" p-id="3335"></path><path d="M356.5 870.9c-49.7 0-102.7-25.8-141.7-69.1-31.6-35-50.9-77.4-54.4-119.4-3.6-42.9 9.7-80.3 37.4-105.2 21.1-19 48.8-29.1 79.9-29.1 49.7 0 102.7 25.8 141.7 69.1 31.6 35 50.9 77.4 54.4 119.4 3.6 42.9-9.7 80.3-37.4 105.2-21 19-48.7 29.1-79.9 29.1z" fill="#F7D7FF" p-id="3336"></path><path d="M277.8 557c45.5 0 96.2 23.1 135 66.2 62.6 69.4 70.4 164.3 17.6 211.9-20.1 18.1-46 26.8-73.9 26.8-45.5 0-96.2-23.1-135-66.2-62.6-69.4-70.4-164.3-17.6-211.9 20.1-18.1 46-26.8 73.9-26.8m0-18v18-18c-33.5 0-63.2 10.9-86 31.4-15.2 13.7-26.4 30.9-33.3 51-6.5 19-8.9 39.7-7 61.7 3.6 43.9 23.8 88.2 56.6 124.7 20.3 22.5 44.7 40.9 70.6 53.4 25.5 12.2 52.4 18.7 77.8 18.7 33.5 0 63.2-10.9 86-31.4 15.2-13.7 26.4-30.9 33.3-51 6.5-19 8.9-39.7 7-61.7-3.6-43.9-23.8-88.2-56.6-124.7-20.3-22.5-44.7-40.9-70.6-53.4-25.4-12.2-52.3-18.7-77.8-18.7z" fill="#330867" p-id="3337"></path><path d="M304.6 876c-38.2 0-78.8-19.8-108.7-53-24.2-26.8-39-59.3-41.6-91.5-2.7-33.1 7.5-62 29-81.3 16.4-14.7 37.8-22.5 61.9-22.5 38.2 0 78.8 19.8 108.7 53 24.2 26.8 39 59.3 41.6 91.5 2.7 33.1-7.5 62-29 81.3-16.4 14.7-37.8 22.5-61.9 22.5z" fill="#F7D7FF" p-id="3338"></path><path d="M245.1 636.7c34.4 0 72.7 17.5 102 50 47.3 52.4 53.2 124.1 13.3 160.1-15.2 13.7-34.8 20.2-55.8 20.2-34.4 0-72.7-17.5-102-50-47.3-52.4-53.2-124.1-13.3-160.1 15.1-13.7 34.7-20.2 55.8-20.2m0-18v18-18c-26.4 0-49.9 8.6-67.9 24.9-12.1 10.9-20.9 24.4-26.4 40.4-5.1 14.9-7 31.2-5.5 48.4 2.8 34.1 18.4 68.5 43.9 96.8 15.7 17.4 34.6 31.7 54.7 41.4 19.8 9.5 40.8 14.6 60.7 14.6 26.4 0 49.9-8.6 67.9-24.9 12.1-10.9 20.9-24.4 26.4-40.4 5.1-14.9 7-31.2 5.5-48.4-2.8-34.1-18.4-68.5-43.9-96.8-15.7-17.4-34.6-31.7-54.7-41.4-19.8-9.6-40.8-14.6-60.7-14.6z" fill="#330867" p-id="3339"></path><path d="M209.2 885.2c-2.4 0-4.6-0.9-6.3-2.6l-55.4-54.9c-3.5-3.5-3.6-9.2-0.1-12.7l89.2-91c0.6-0.6 1.2-1.1 1.9-1.5 7.1-4.2 14.5-6.3 22-6.3 21.5 0 38 17.5 44.8 34.9 7.1 18.2 4.6 36.1-6.7 46.7l-82.9 84.6c-1.8 1.9-4 2.8-6.5 2.8z" fill="#66C1FF" p-id="3340"></path><path d="M260.4 725.3c30.8 0 52.1 47.4 31.8 66.2l-83 84.8-55.4-54.9 89.2-91c5.9-3.6 11.8-5.1 17.4-5.1m0-18c-9.1 0-18 2.5-26.6 7.6-1.4 0.8-2.6 1.8-3.7 2.9l-89.2 91c-6.9 7.1-6.8 18.4 0.2 25.4l55.4 54.9c3.4 3.3 7.9 5.2 12.7 5.2h0.1c4.8 0 9.4-2 12.7-5.4l82.7-84.5c13.9-13.2 17.3-34.8 8.8-56.4-4.2-10.7-11.1-20.5-19.4-27.6-9.9-8.6-21.6-13.1-33.7-13.1z" fill="#330867" p-id="3341"></path><path d="M192.6 891.4c-12.8 0-26.3-6.1-37-16.6-19.1-18.9-22.7-45.3-8.1-60 5.9-5.9 13.9-9.1 23.1-9.1 12.8 0 26.3 6.1 37 16.6 8.7 8.6 14.6 19.3 16.4 30.1 2 11.7-1 22.6-8.3 29.9-5.9 6-13.9 9.1-23.1 9.1z" fill="#18A3D3" p-id="3342"></path><path d="M170.6 814.7c10 0 21.4 4.9 30.6 14 15.3 15.2 18.9 36.3 8.1 47.3-4.3 4.3-10.2 6.4-16.7 6.4-10 0-21.4-4.9-30.6-14-15.3-15.2-18.9-36.3-8.1-47.3 4.2-4.3 10.2-6.4 16.7-6.4m0-18c-11.5 0-22 4.2-29.5 11.8-9.3 9.4-13.2 23.2-10.7 37.8 2.2 12.6 8.9 25 18.9 35 12.4 12.2 28.1 19.2 43.3 19.2 11.5 0 22-4.2 29.5-11.8 9.3-9.4 13.2-23.2 10.7-37.8-2.2-12.6-8.9-25-18.9-35-12.4-12.2-28.1-19.2-43.3-19.2z" fill="#330867" p-id="3343"></path></svg>