<?xml version="1.0" encoding="utf-8"?>
<svg version="1.1" xmlns:xlink="http://www.w3.org/1999/xlink" width="28px" height="28px" xmlns="http://www.w3.org/2000/svg">
  <g transform="matrix(1 0 0 1 -174 -540 )">
    <path d="M 27.125 14  C 27.125 21.2374848828125  21.2374848828125 27.125  14 27.125  C 6.7625151171875 27.125  0.875 21.2374848828125  0.875 14  C 0.875 6.7625151171875  6.7625151171875 0.875  14 0.875  C 21.2374848828125 0.875  27.125 6.7625151171875  27.125 14  Z M 25.2415837988281 14  C 25.2415837988281 7.80123640625  20.1978060839844 2.75841620117188  14 2.75841620117188  C 7.80123640625 2.75841620117188  2.75841620117188 7.80123637695312  2.75841620117188 14  C 2.75841620117188 20.1978060839844  7.80123637695313 25.2415837988281  14 25.2415837988281  C 20.1978060839844 25.2415837988281  25.2415837988281 20.1978564746094  25.2415837988281 14  Z M 19.377402265625 18.1109394335938  L 15.3199838867187 14.0403171582031  L 19.3737233105469 10.0306242382813  C 19.7421717675781 9.66686263671875  19.7449939648437 9.0734444140625  19.3812323925781 8.70499595703125  C 19.0174708203125 8.3365475  18.4230950585937 8.33372530273438  18.0556041113281 8.697486875  L 13.9962202929687 12.7118666503906  L 9.99872331054687 8.70217373046875  C 9.63213951171875 8.33558993164063  9.039678828125 8.3337252734375  8.67309502929687 8.70030907226563  C 8.30651123046875 9.06593533203125  8.30560411132812 9.6593535546875  8.67123037109375 10.0259373535156  L 12.6630829589844 14.0299858789063  L 8.63837190429687 18.011557578125  C 8.26992344726562 18.3762262988281  8.26710125 18.9687374023438  8.63086282226562 19.337185859375  C 8.81460828125 19.5227960058594  9.05555372070312 19.6156262597656  9.29740630859375 19.6156262597656  C 9.53552955078125 19.6156262597656  9.77365279296875 19.5247110546875  9.95649110351562 19.3446949414063  L 13.9867961621094 15.3584363867188  L 18.0499093261719 19.4347030273438  C 18.2327476660156 19.6184484863281  18.4727355664063 19.7103212304688  18.7136810058594 19.7103212304688  C 18.95366890625 19.7103212304688  19.1927496875 19.6184484863281  19.3755376074219 19.4365677148438  C 19.74212140625 19.0709414550781  19.7430285253906 18.4784303808594  19.377402265625 18.1109394335938  Z " fill-rule="nonzero" fill="#272636" stroke="none" fill-opacity="0.596078431372549" transform="matrix(1 0 0 1 174 540 )" />
  </g>
</svg>