<?xml version="1.0" standalone="no"?><!DOCTYPE svg PUBLIC "-//W3C//DTD SVG 1.1//EN" "http://www.w3.org/Graphics/SVG/1.1/DTD/svg11.dtd"><svg t="1607068623369" class="icon" viewBox="0 0 1024 1024" version="1.1" xmlns="http://www.w3.org/2000/svg" p-id="2868" xmlns:xlink="http://www.w3.org/1999/xlink" width="200" height="200"><defs><style type="text/css"></style></defs><path d="M508.1 813.2c-1.7 0-3.4-0.5-4.9-1.4-0.7-0.5-73.8-47.9-148.8-117.7-44.2-41.1-80.5-81.9-107.9-121.3-34.6-49.7-55.2-97.3-61-141.6-7.6-57.7 9.5-110.1 50.7-155.7 40.1-44.4 83.1-66.9 127.8-66.9 36.4 0 74.2 15.5 109.3 44.8 15.9 13.3 27.8 26.5 34.8 35 7.1-8.5 19-21.7 34.8-35 35.1-29.3 72.8-44.8 109.3-44.8 44.7 0 87.7 22.5 127.8 66.9 41.3 45.7 58.4 98.1 50.7 155.7-5.8 44.2-26.4 91.9-61 141.6-27.4 39.4-63.7 80.2-107.9 121.3-75.1 69.8-148.1 117.2-148.8 117.7-1.5 0.9-3.2 1.4-4.9 1.4z" fill="#FC6B79" p-id="2869"></path><path d="M652.2 217.6c36.8 0 78.3 16.5 121.2 63.9 200.7 222-265.3 522.6-265.3 522.6S42.2 503.5 242.8 281.6c42.9-47.4 84.3-63.9 121.2-63.9 83.9 0 144.1 85.5 144.1 85.5s60.2-85.6 144.1-85.6m0-18c-21.8 0-43.8 5-65.4 15-16.9 7.8-33.6 18.5-49.6 31.9-12 10-21.8 20-29 28.1-7.3-8.1-17.1-18.1-29-28.1-16.1-13.4-32.8-24.2-49.6-31.9-21.7-10-43.7-15-65.4-15-47.3 0-92.6 23.5-134.5 69.9-43.1 47.7-61 102.5-53 162.9 6 45.7 27.1 94.7 62.6 145.6 27.8 39.9 64.5 81.1 109.2 122.7 75.6 70.3 147.1 116.7 150.1 118.6 3 1.9 6.4 2.9 9.8 2.9 3.4 0 6.8-1 9.8-2.9 3-1.9 74.4-48.3 150.1-118.6 44.7-41.6 81.4-82.8 109.2-122.7 35.5-50.9 56.5-99.9 62.6-145.6 8-60.4-9.8-115.2-53-162.9-42.3-46.4-87.6-69.9-134.9-69.9z" fill="#330867" p-id="2870"></path><path d="M225.9 302.6C70.8 522 508.1 804.2 508.1 804.2S169.9 545.3 225.9 302.6z" fill="#DD365E" p-id="2871"></path><path d="M142.5 435.6h180.4l80.2 165 61.4-165h72l85.6-127.9 73.8 127.9h227.7" fill="#FFE08A" p-id="2872"></path><path d="M403.1 609.6c-3.4 0-6.6-2-8.1-5.1l-77.8-159.9H142.5c-5 0-9-4-9-9s4-9 9-9h180.3c3.4 0 6.6 2 8.1 5.1L402 577.8l54.1-145.3c1.3-3.5 4.7-5.9 8.4-5.9h67.2l82.9-124c1.7-2.6 4.7-4.1 7.8-4 3.1 0.1 5.9 1.8 7.5 4.5L701 426.6h222.5c5 0 9 4 9 9s-4 9-9 9H695.9c-3.2 0-6.2-1.7-7.8-4.5l-66.5-115.4-77.5 116c-1.7 2.5-4.5 4-7.5 4h-65.7l-59.2 159.1c-1.3 3.4-4.4 5.7-8 5.8h-0.6z" fill="#330867" p-id="2873"></path><path d="M898.5 463.7c-15.5 0-28.1-12.6-28.1-28.1 0-15.5 12.6-28.1 28.1-28.1s28.1 12.6 28.1 28.1c-0.1 15.5-12.7 28.1-28.1 28.1z" fill="#F7D7FF" p-id="2874"></path><path d="M898.5 416.6c10.5 0 19.1 8.5 19.1 19.1 0 10.5-8.5 19.1-19.1 19.1-10.5 0-19.1-8.5-19.1-19.1 0-10.6 8.5-19.1 19.1-19.1m0-18c-20.4 0-37.1 16.6-37.1 37.1 0 20.4 16.6 37.1 37.1 37.1s37.1-16.6 37.1-37.1c-0.1-20.5-16.7-37.1-37.1-37.1z" fill="#330867" p-id="2875"></path><path d="M123.5 463.7c-15.5 0-28.1-12.6-28.1-28.1 0-15.5 12.6-28.1 28.1-28.1 15.5 0 28.1 12.6 28.1 28.1-0.1 15.5-12.7 28.1-28.1 28.1z" fill="#F7D7FF" p-id="2876"></path><path d="M123.5 416.6c10.5 0 19.1 8.5 19.1 19.1 0 10.5-8.5 19.1-19.1 19.1-10.5 0-19.1-8.5-19.1-19.1 0-10.6 8.5-19.1 19.1-19.1m0-18c-20.4 0-37.1 16.6-37.1 37.1 0 20.4 16.6 37.1 37.1 37.1s37.1-16.6 37.1-37.1c-0.1-20.5-16.7-37.1-37.1-37.1z" fill="#330867" p-id="2877"></path><path d="M533.1 683.6c-3.5 0-6.8-2-8.3-5.5-2-4.6 0.2-9.9 4.7-11.8 54.4-23.3 89.9-62.6 110.1-91.5 22.1-31.5 31.3-57.9 31.4-58.1 1.6-4.7 6.7-7.2 11.4-5.6 4.7 1.6 7.2 6.7 5.6 11.4-0.4 1.2-9.9 28.6-33.3 62.1-21.6 31-59.6 73.1-118.1 98.2-1.1 0.6-2.3 0.8-3.5 0.8z" fill="#FFFFFF" p-id="2878"></path></svg>