<?xml version="1.0" encoding="utf-8"?>
<!-- Generator: Adobe Illustrator 24.1.2, SVG Export Plug-In . SVG Version: 6.00 Build 0)  -->
<svg version="1.1" id="图层_1" xmlns="http://www.w3.org/2000/svg" xmlns:xlink="http://www.w3.org/1999/xlink" x="0px" y="0px"
	 viewBox="0 0 20 16.27" style="enable-background:new 0 0 20 16.27;" xml:space="preserve">
<style type="text/css">
	.st0{clip-path:url(#SVGID_2_);fill:#FFFFFF;}
	.st1{fill:#FFFFFF;}
</style>
<g>
	<g>
		<defs>
			<rect id="SVGID_1_" width="20" height="16.29"/>
		</defs>
		<clipPath id="SVGID_2_">
			<use xlink:href="#SVGID_1_"  style="overflow:visible;"/>
		</clipPath>
		<path class="st0" d="M15.37,0H4.62c-0.04,0-0.09,0-0.13,0.01c-0.36,0.05-0.7,0.21-0.95,0.47L3.5,0.53L0.38,4.04
			c-0.5,0.58-0.51,1.43-0.03,2.01l0.03,0.03l8.82,9.84c0.2,0.22,0.48,0.35,0.78,0.35c0.3,0,0.58-0.13,0.78-0.34l8.86-9.84
			c0.48-0.57,0.51-1.36,0.09-1.94c-0.03-0.04-0.05-0.08-0.09-0.11l-3.12-3.51C16.21,0.18,15.82,0,15.37,0L15.37,0z M18.02,4.73
			l-0.2,0.23c0.03,0.13,0.08,0.25,0.15,0.35l0.05,0.07c-0.13-0.18-0.14-0.42-0.03-0.6L18.02,4.73L18.02,4.73z M17.73,5.06
			l-7.75,8.61L2.26,5.06L4.9,2.09h10.19L17.73,5.06z M17.73,5.06"/>
	</g>
	<path class="st1" d="M6.42,6.36C7.27,7.48,8.59,8.14,10,8.14c1.43,0,2.74-0.67,3.58-1.79c0.25-0.33,0.18-0.8-0.15-1.05
		c-0.33-0.25-0.8-0.18-1.05,0.15C11.83,6.2,10.94,6.65,10,6.64c-0.94,0-1.82-0.44-2.39-1.19C7.36,5.13,6.9,5.06,6.57,5.31
		C6.24,5.56,6.17,6.03,6.42,6.36L6.42,6.36z M6.42,6.36"/>
</g>
</svg>
